<svg width="212" height="140" viewBox="0 0 212 140" fill="none" xmlns="http://www.w3.org/2000/svg">
<path d="M209.055 67.4239C209.055 83.4857 199.665 98.1427 184.214 109.448V137.224L147.41 126.599C134.734 130.106 120.744 132.076 106 132.076C49.0858 132.076 2.94528 103.131 2.94528 67.4284C2.94528 31.7261 49.0858 2.77666 106 2.77666C162.914 2.77666 209.055 31.7217 209.055 67.4239Z" fill="#341948"/>
<path d="M184.214 139.444C183.855 139.444 183.502 139.395 183.16 139.297L147.381 128.97C134.222 132.509 120.302 134.3 106 134.3C47.5542 134.296 0 104.297 0 67.4257C0 30.5542 47.5542 0.551193 106 0.551193C164.452 0.551193 212 30.5498 212 67.4212C212 83.1185 203.188 98.3356 187.16 110.379V137.221C187.16 137.954 186.683 138.635 185.881 139.052C185.392 139.306 184.803 139.444 184.214 139.444ZM147.41 124.373C147.77 124.373 148.123 124.422 148.465 124.52L181.269 133.989V109.445C181.269 108.84 181.593 108.267 182.164 107.849C197.604 96.553 206.104 82.1938 206.104 67.4212C206.104 32.9993 161.194 4.99675 105.994 4.99675C50.794 4.99675 5.89052 32.9993 5.89052 67.4257C5.89052 101.852 50.7999 129.855 106 129.855C119.99 129.855 133.585 128.059 146.397 124.511C146.727 124.418 147.069 124.373 147.41 124.373Z" fill="#341948"/>
</svg>
