<svg width="303" height="233" viewBox="0 0 303 233" fill="none" xmlns="http://www.w3.org/2000/svg">
<path d="M260.387 92.8814C247.069 39.8577 201.053 1.58193 147.04 0.0467242C118.485 -0.764894 88.4368 8.82424 66.5597 42.3801C27.4519 102.365 68.963 143.816 97.9033 163.513C111.885 173.048 124.483 184.513 135.333 197.576C154.882 221.064 192.488 250.251 237.276 204.52C269.738 171.374 269.258 128.2 260.387 92.8814Z" fill="#F2F2F2"/>
<path opacity="0.1" d="M200.403 143.076L227.807 115.414L200.403 87.7511L208.758 79.3199L244.517 115.414L208.758 151.507L200.403 143.076Z" fill="black"/>
<path opacity="0.1" d="M122.147 117.387H133.286V106.108H122.147V117.387ZM178.068 106.108H166.928V117.387H178.068V106.108ZM144.538 117.387H155.677V106.108H144.538V117.387Z" fill="black"/>
<path opacity="0.1" d="M107.053 142.794L79.6212 115.132L107.025 87.4692L98.6701 79.0379L62.9395 115.132L98.6979 151.225L107.053 142.794Z" fill="black"/>
<path d="M303 212.133C303 216.805 235.171 233 151.5 233C67.8289 233 0 216.805 0 212.133C0 207.461 67.8289 216.081 151.5 216.081C235.171 216.081 303 207.461 303 212.133Z" fill="#3F3D56"/>
<path opacity="0.1" d="M303 212.133C303 216.805 235.171 233 151.5 233C67.8289 233 0 216.805 0 212.133C0 207.461 67.8289 216.081 151.5 216.081C235.171 216.081 303 207.461 303 212.133Z" fill="black"/>
<path d="M151.5 220.593C235.171 220.593 303 216.805 303 212.133C303 207.461 235.171 203.674 151.5 203.674C67.8289 203.674 0 207.461 0 212.133C0 216.805 67.8289 220.593 151.5 220.593Z" fill="#3F3D56"/>
<path d="M176.201 171.432C176.201 189.483 187.386 204.09 201.207 204.09L176.201 171.432Z" fill="#3F3D56"/>
<path d="M201.207 204.09C201.207 185.836 213.688 171.065 229.113 171.065L201.207 204.09Z" fill="#00B0FF"/>
<path d="M185.261 173.068C185.261 190.215 192.393 204.09 201.207 204.09L185.261 173.068Z" fill="#00B0FF"/>
<path d="M201.207 204.09C201.207 180.765 215.633 161.891 233.462 161.891L201.207 204.09Z" fill="#3F3D56"/>
<path d="M195.947 204.32C195.947 204.32 199.493 204.21 200.562 203.439C201.63 202.669 206.017 201.749 206.282 202.984C206.547 204.22 211.611 209.131 207.607 209.164C203.604 209.196 198.305 208.532 197.238 207.874C196.171 207.216 195.947 204.32 195.947 204.32Z" fill="#A8A8A8"/>
<path opacity="0.2" d="M207.679 208.733C203.675 208.766 198.376 208.102 197.309 207.444C196.497 206.943 196.173 205.145 196.065 204.316C195.99 204.319 195.947 204.32 195.947 204.32C195.947 204.32 196.171 207.216 197.238 207.874C198.305 208.532 203.604 209.196 207.607 209.164C208.763 209.154 209.162 208.738 209.14 208.121C208.98 208.494 208.539 208.726 207.679 208.733Z" fill="black"/>
<path d="M241.045 107.958C241.045 107.958 232.47 101.366 231.819 103.782C231.169 106.198 238.111 111.69 238.111 111.69L241.045 107.958Z" fill="#FFB9B9"/>
<path opacity="0.1" d="M241.045 107.958C241.045 107.958 232.47 101.366 231.819 103.782C231.169 106.198 238.111 111.69 238.111 111.69L241.045 107.958Z" fill="black"/>
<path d="M269.35 87.088C269.35 87.088 259.154 105.539 258.937 108.175C258.72 110.811 258.72 111.031 257.852 110.811C256.985 110.592 245.053 109.274 243.968 109.713C242.883 110.152 240.714 107.077 240.714 107.077C240.714 107.077 236.592 111.251 237.46 112.129C238.328 113.008 240.931 113.447 241.365 114.546C241.799 115.644 242.45 116.742 244.402 116.523C246.355 116.303 259.588 120.037 261.324 119.378C263.059 118.719 263.493 117.621 264.361 117.621C265.229 117.621 266.964 116.742 266.964 116.523C266.964 116.303 273.038 104.661 273.038 104.661C273.038 104.661 280.198 88.8452 269.35 87.088Z" fill="#D0CDE1"/>
<path opacity="0.1" d="M269.35 87.088C269.35 87.088 259.154 105.539 258.937 108.175C258.72 110.811 258.72 111.031 257.852 110.811C256.985 110.592 245.053 109.274 243.968 109.713C242.883 110.152 240.714 107.077 240.714 107.077C240.714 107.077 236.592 111.251 237.46 112.129C238.328 113.008 240.931 113.447 241.365 114.546C241.799 115.644 242.45 116.742 244.402 116.523C246.355 116.303 259.588 120.037 261.324 119.378C263.059 118.719 263.493 117.621 264.361 117.621C265.229 117.621 266.964 116.742 266.964 116.523C266.964 116.303 273.038 104.661 273.038 104.661C273.038 104.661 280.198 88.8452 269.35 87.088Z" fill="black"/>
<path d="M254.557 74.9238C254.465 76.0903 254.484 77.2631 254.613 78.426C254.942 80.9497 256.09 83.5803 255.006 85.936C254.612 86.7911 253.946 87.5362 253.583 88.4015C252.815 90.2334 253.511 92.2652 253.407 94.2148C253.272 96.7334 251.69 99.1602 249.283 100.54C253.395 100.67 257.305 98.6114 259.892 95.8066C262.479 93.0017 263.92 89.5228 265 86.0421C265.555 84.4075 265.911 82.7103 266.059 80.9884C266.146 79.9991 266.031 79.0025 265.723 78.0597C265.343 77.1387 264.842 76.2734 264.235 75.4871C263.587 74.5649 262.922 73.6246 261.966 72.9384C260.789 72.0933 258.519 71.2448 256.957 71.3678C255.042 71.5186 254.638 73.5776 254.557 74.9238Z" fill="#2F2E41"/>
<path d="M260.89 81.8161C260.89 81.8161 263.276 90.3828 261.324 92.7991C259.371 95.2154 273.038 91.7008 273.038 91.7008C273.038 91.7008 266.313 84.8913 269.567 80.4981L260.89 81.8161Z" fill="#FFB9B9"/>
<path opacity="0.1" d="M260.89 81.8161C260.89 81.8161 263.276 90.3828 261.324 92.7991C259.371 95.2154 273.038 91.7008 273.038 91.7008C273.038 91.7008 266.313 84.8913 269.567 80.4981L260.89 81.8161Z" fill="black"/>
<path d="M200.403 137.718L227.807 110.056L200.403 82.3935L208.758 73.9622L244.517 110.056L208.758 146.15L200.403 137.718Z" fill="#00B0FF"/>
<path d="M253.08 196.04V202.41L256.334 206.364L259.154 205.046L258.286 195.82L253.08 196.04Z" fill="#FFB9B9"/>
<path d="M254.381 201.971C254.381 201.971 253.514 198.895 251.995 201.092C250.477 203.289 248.958 208.121 248.09 208.341C247.222 208.561 241.148 215.37 247.222 215.37C253.297 215.37 255.249 212.514 255.249 212.514C255.249 212.514 261.324 210.098 261.324 209.659C261.324 209.22 260.456 201.092 260.022 201.092C259.588 201.092 259.371 202.63 258.286 202.63C257.202 202.63 254.381 201.971 254.381 201.971Z" fill="#2F2E41"/>
<path d="M267.615 197.138L267.398 203.069L272.604 205.265V196.699L267.615 197.138Z" fill="#FFB9B9"/>
<path d="M273.255 203.069C273.255 203.069 270.435 199.994 268.917 200.653C268.165 200.959 267.44 201.326 266.747 201.751C266.747 201.751 265.879 204.607 265.445 207.023C265.012 209.439 264.795 210.537 264.361 211.416C263.927 212.295 263.493 215.59 267.832 216.029C272.171 216.468 273.472 214.052 273.472 214.052L274.557 208.341C274.557 208.341 274.123 203.069 273.255 203.069Z" fill="#2F2E41"/>
<path d="M255.9 133.876C255.9 133.876 249.609 148.154 250.477 161.114C250.477 161.114 248.307 166.166 249.609 174.074C250.91 181.982 252.646 197.797 252.646 197.797C252.646 197.797 258.503 198.456 258.937 197.358C258.937 197.358 259.371 186.375 259.805 185.935C260.239 185.496 259.588 175.392 258.937 173.415C258.286 171.438 265.012 151.888 265.012 151.888L263.276 127.506L255.9 133.876Z" fill="#2F2E41"/>
<path opacity="0.1" d="M255.9 133.876C255.9 133.876 249.609 148.154 250.477 161.114C250.477 161.114 248.307 166.166 249.609 174.074C250.91 181.982 252.646 197.797 252.646 197.797C252.646 197.797 258.503 198.456 258.937 197.358C258.937 197.358 259.371 186.375 259.805 185.935C260.239 185.496 259.588 175.392 258.937 173.415C258.286 171.438 265.012 151.888 265.012 151.888L263.276 127.506L255.9 133.876Z" fill="black"/>
<path d="M254.165 132.997L258.286 142.003C258.286 142.003 260.239 162.432 261.324 165.068C261.324 165.068 261.758 172.536 263.71 174.952C265.663 177.369 267.181 198.676 267.181 198.676C267.181 198.676 272.605 200.213 273.039 198.676C273.472 197.138 274.774 186.594 274.774 186.594C274.774 186.594 275.208 177.588 272.822 171.657C270.435 165.727 275.642 144.419 275.642 144.419C275.642 144.419 281.065 134.095 273.256 125.748L254.165 132.997Z" fill="#2F2E41"/>
<path d="M265.662 84.452C270.575 84.452 274.557 80.4199 274.557 75.4459C274.557 70.472 270.575 66.4398 265.662 66.4398C260.75 66.4398 256.768 70.472 256.768 75.4459C256.768 80.4199 260.75 84.452 265.662 84.452Z" fill="#FFB9B9"/>
<path d="M273.906 89.0649C273.906 89.0649 264.578 89.0649 263.276 90.1632C262.954 90.4733 262.527 90.6462 262.083 90.6462C261.639 90.6462 261.212 90.4733 260.89 90.1632C260.89 90.1632 257.636 90.3829 256.768 93.0188C255.9 95.6548 253.297 99.1694 253.297 99.1694C253.297 99.1694 249.392 102.025 251.561 109.493C253.731 116.962 251.995 129.043 251.995 129.043C251.995 129.043 250.26 131.679 251.995 132.778C253.731 133.876 254.381 134.315 254.165 135.194C253.948 136.072 273.906 127.945 273.906 126.407C273.906 124.87 273.472 123.552 273.906 122.893C274.34 122.234 274.774 121.135 274.34 120.037C273.906 118.939 274.774 118.719 274.557 117.621C274.34 116.523 275.642 108.395 276.51 104.881C277.377 101.366 277.16 89.2846 273.906 89.0649Z" fill="#00B0FF"/>
<path d="M241.045 110.594C241.045 110.594 232.47 104.002 231.819 106.418C231.169 108.834 238.111 114.326 238.111 114.326L241.045 110.594Z" fill="#FFB9B9"/>
<path d="M269.35 90.1632C269.35 90.1632 259.154 108.615 258.937 111.251C258.72 113.887 258.72 114.106 257.852 113.887C256.985 113.667 245.053 112.349 243.968 112.788C242.883 113.228 240.714 110.152 240.714 110.152C240.714 110.152 236.592 114.326 237.46 115.205C238.328 116.083 240.931 116.523 241.365 117.621C241.799 118.719 242.45 119.817 244.402 119.598C246.355 119.378 259.588 123.112 261.324 122.453C263.059 121.794 263.493 120.696 264.361 120.696C265.229 120.696 266.964 119.817 266.964 119.598C266.964 119.378 273.038 107.736 273.038 107.736C273.038 107.736 280.198 91.9205 269.35 90.1632Z" fill="#00B0FF"/>
<path d="M261.258 81.1998C261.135 80.3079 260.683 79.4987 260.452 78.629C260.271 77.933 260.231 77.2071 260.334 76.495C260.437 75.7829 260.681 75.0992 261.052 74.4852C262.328 72.3987 264.833 71.4746 266.58 69.7736C266.616 70.6401 267.21 71.3805 267.866 71.9377C268.522 72.495 269.275 72.947 269.831 73.6069C270.364 74.3031 270.754 75.1015 270.975 75.954C271.317 76.9418 271.471 77.9865 271.427 79.0324C271.402 79.555 271.272 80.067 271.046 80.5373C270.819 81.0076 270.501 81.4264 270.11 81.7682C269.459 82.2888 268.55 82.5862 268.235 83.3632C268.112 83.7516 268.076 84.1631 268.131 84.5673C268.28 86.984 268.419 89.4437 267.857 91.7973C267.295 94.1509 265.918 96.4248 263.76 97.4681C265.533 97.5955 267.344 97.7197 269.065 97.2664C270.785 96.8132 272.431 95.6717 273.024 93.9747C273.317 93.1376 273.345 92.2064 273.76 91.4245C274.813 89.4455 277.719 89.3552 279.146 87.6339C279.718 86.9451 279.994 86.0574 280.199 85.1822C281.404 80.0319 280.557 74.5631 278.722 69.607C278.09 67.8987 277.303 66.1787 275.946 64.9781C274.792 63.9565 273.317 63.3935 271.86 62.9128C269.732 62.2112 267.54 61.6364 265.304 61.5623C264.332 61.5045 263.358 61.6197 262.426 61.9025C261.506 62.2391 260.649 62.7331 259.894 63.363C256.391 66.123 254.006 70.5342 254.322 75.0172C254.514 77.7298 255.649 80.2969 257.107 82.5807C257.617 83.3795 258.822 85.0826 259.942 84.5804C260.958 84.1249 261.391 82.1632 261.258 81.1998Z" fill="#2F2E41"/>
<path d="M122.147 112.03H133.286V100.75H122.147V112.03ZM178.068 100.75H166.928V112.03H178.068V100.75ZM144.538 112.03H155.677V100.75H144.538V112.03Z" fill="#00B0FF"/>
<path d="M57.4267 67.1374C62.6033 67.1374 66.7999 63.8231 66.7999 59.7347C66.7999 55.6463 62.6033 52.332 57.4267 52.332C52.25 52.332 48.0535 55.6463 48.0535 59.7347C48.0535 63.8231 52.25 67.1374 57.4267 67.1374Z" fill="#2F2E41"/>
<path d="M59.0204 110.699C59.0204 110.699 67.4562 111.269 68.956 110.13C70.4557 108.991 76.8294 111.649 77.3918 113.167C77.9542 114.686 68.3936 114.875 66.8939 114.875C65.3941 114.875 58.2705 117.153 58.2705 117.153L59.0204 110.699Z" fill="#A0616A"/>
<path d="M41.6492 199.118C41.6492 199.118 37.7177 209.157 39.769 210.368C41.8202 211.58 63.3578 210.714 63.3578 210.714C63.3578 210.714 66.9474 208.464 62.845 206.907C62.845 206.907 59.4263 206.734 57.2042 205.349C54.982 203.964 52.418 201.368 52.418 201.368C52.418 201.368 52.2471 197.561 50.8796 198.426C50.4705 198.699 50.1223 199.055 49.8573 199.473C49.5924 199.89 49.4166 200.359 49.3412 200.849L41.6492 199.118Z" fill="#2F2E41"/>
<path opacity="0.1" d="M41.6492 199.118C41.6492 199.118 37.7177 209.157 39.769 210.368C41.8202 211.58 63.3578 210.714 63.3578 210.714C63.3578 210.714 66.9474 208.464 62.845 206.907C62.845 206.907 59.4263 206.734 57.2042 205.349C54.982 203.964 52.418 201.368 52.418 201.368C52.418 201.368 52.2471 197.561 50.8796 198.426C50.4705 198.699 50.1223 199.055 49.8573 199.473C49.5924 199.89 49.4166 200.359 49.3412 200.849L41.6492 199.118Z" fill="black"/>
<path d="M107.053 137.436L79.6212 109.774L107.025 82.1115L98.6701 73.6802L62.9395 109.774L98.6979 145.868L107.053 137.436Z" fill="#00B0FF"/>
<path d="M35.5873 202.189C35.5873 202.189 31.2757 213.198 33.5252 214.527C35.7748 215.856 59.3953 214.907 59.3953 214.907C59.3953 214.907 63.332 212.439 58.8329 210.731C58.8329 210.731 55.0836 210.541 52.6466 209.023C50.2095 207.504 47.3976 204.657 47.3976 204.657C47.3976 204.657 47.2101 200.481 45.7104 201.43C45.2617 201.729 44.8798 202.12 44.5892 202.578C44.2987 203.036 44.1059 203.55 44.0232 204.087L35.5873 202.189Z" fill="#2F2E41"/>
<path d="M57.708 132.338L55.0835 156.255C55.0835 156.255 54.1462 167.643 51.3342 170.111C51.3342 170.111 51.3342 173.717 50.3969 174.856L49.0846 189.851C49.0846 189.851 50.9593 195.356 50.7718 196.305C50.5844 197.254 51.5217 200.291 51.3342 200.671C51.1468 201.05 42.3359 200.671 42.3359 200.671L44.2106 170.111L50.022 127.593L57.708 132.338Z" fill="#2F2E41"/>
<path opacity="0.1" d="M57.708 132.338L55.0835 156.255C55.0835 156.255 54.1462 167.643 51.3342 170.111C51.3342 170.111 51.3342 173.717 50.3969 174.856L49.0846 189.851C49.0846 189.851 50.9593 195.356 50.7718 196.305C50.5844 197.254 51.5217 200.291 51.3342 200.671C51.1468 201.05 42.3359 200.671 42.3359 200.671L44.2106 170.111L50.022 127.593L57.708 132.338Z" fill="black"/>
<path d="M53.0215 131.579C53.0215 131.579 50.9594 151.13 50.022 155.306C49.4327 158.056 49.0566 160.848 48.8973 163.657C48.8973 163.657 48.7098 169.731 47.0226 171.44C46.529 171.934 46.1411 172.527 45.8831 173.18C45.6251 173.833 45.5025 174.533 45.5229 175.236C45.5229 175.236 43.8357 194.407 44.7731 196.685C45.7104 198.962 46.6477 200.861 45.7104 202.379C44.7731 203.898 34.4625 203.898 34.4625 202.759C34.4625 201.62 34.4625 200.671 33.9002 200.101C33.3378 199.532 33.9002 195.925 33.9002 195.925C33.9002 195.925 31.6506 179.032 33.7127 174.097C35.7748 169.162 36.7121 155.685 36.7121 155.685C36.7121 155.685 35.2124 140.31 33.3378 137.843C31.4631 135.375 33.7127 126.644 33.7127 126.644L53.0215 131.579Z" fill="#2F2E41"/>
<path d="M47.7437 70.8655C47.9616 71.3682 48.4832 71.6481 48.9581 71.913C51.7104 73.4483 54.0143 75.6742 56.2842 77.8745C55.7178 75.9311 55.8385 73.8485 56.6254 71.9855C56.8964 71.3501 57.2516 70.667 57.0579 70.0032C56.9155 69.5151 56.5049 69.163 56.1073 68.8516C55.1811 68.1264 54.213 67.4576 53.2083 66.849C52.5064 66.4238 51.0632 65.2919 50.2578 65.415C50.2155 66.517 50.1934 67.5022 49.7168 68.5321C49.6037 68.7764 47.827 71.0577 47.7437 70.8655Z" fill="#A0616A"/>
<path d="M57.333 73.3064C61.5779 73.3064 65.019 69.8221 65.019 65.524C65.019 61.226 61.5779 57.7417 57.333 57.7417C53.0881 57.7417 49.647 61.226 49.647 65.524C49.647 69.8221 53.0881 73.3064 57.333 73.3064Z" fill="#A0616A"/>
<path d="M57.7081 83.9359C57.7081 83.9359 59.0203 77.2924 55.271 75.0147C51.5217 72.7369 47.2101 70.0795 47.2101 70.0795C47.2101 70.0795 45.8978 69.8897 45.3354 72.7369C45.3354 72.7369 34.65 74.8248 33.5252 85.0748C32.4004 95.3247 34.2751 110.32 34.2751 110.32C34.2751 110.32 32.5879 123.417 30.5258 130.44C30.5258 130.44 28.8386 131.959 36.3372 129.681C43.8357 127.403 56.9582 136.134 56.9582 136.134C56.9582 136.134 58.2704 134.806 58.2704 133.857C58.2704 132.908 59.7702 127.403 59.7702 127.403C59.7702 127.403 61.0824 104.056 61.6448 101.399C62.2072 98.7413 59.3952 84.3155 57.7081 83.9359Z" fill="#82B9E9"/>
<path d="M55.5216 66.3258C55.9833 66.0667 56.5011 65.927 57.029 65.9193C57.5575 65.9113 58.0735 65.7556 58.5201 65.4694C59.2461 64.905 59.2994 63.8144 59.8305 63.0596C60.5995 61.9668 62.1335 61.8353 63.4576 61.8899C64.2675 61.9234 65.1396 61.9723 65.8216 61.5288C66.5217 61.0735 66.839 60.2157 67.0751 59.4078C67.3542 58.4524 67.5348 57.2841 66.843 56.5755C66.3627 56.0835 65.6044 55.9862 65.0708 55.5541C64.5175 55.106 64.2898 54.3769 63.989 53.7273C63.6468 52.936 63.1055 52.2494 62.4191 51.7362C61.4124 51.028 60.1267 50.8692 58.901 50.8825C57.6752 50.8957 56.4444 51.0589 55.2278 50.9066C54.2311 50.7819 53.2373 50.4462 52.2438 50.5949C50.9778 50.7845 49.9305 51.7516 49.3067 52.883C48.6829 54.0144 48.4153 55.3059 48.1557 56.5747L47.4498 60.0257C47.2309 61.096 47.0111 62.1948 47.1801 63.2744C47.5304 65.5124 49.4851 67.2912 49.6198 69.553C49.7482 68.9285 50.0277 68.3459 50.4332 67.8577C50.8387 67.3695 51.3576 66.9908 51.9433 66.7556C52.0901 66.6829 52.2569 66.6624 52.4166 66.6974C52.6108 66.7603 52.7243 66.9567 52.8469 67.1217C53.168 67.554 54.1768 68.2098 54.7486 67.9032C55.2603 67.6288 54.8783 66.7675 55.5216 66.3258Z" fill="#2F2E41"/>
<path d="M36.1496 101.778C36.1496 101.778 34.8373 110.13 40.2738 109.371C40.2738 109.371 43.0858 108.991 43.4607 109.371C43.8356 109.75 57.708 107.283 59.5826 105.195C59.5826 105.195 61.8322 104.436 62.9569 105.575C64.0817 106.713 75.3296 107.852 71.9552 104.436C68.5809 101.019 63.3319 100.26 63.3319 100.26L56.2082 100.639C56.2082 100.639 52.459 101.778 50.2094 100.639C47.9598 99.5006 41.586 99.8802 41.586 99.8802L36.1496 101.778Z" fill="#A0616A"/>
<path d="M43.8358 75.3943C43.8358 75.3943 35.3999 76.3434 35.3999 88.6812V104.436C35.3999 104.436 40.0865 102.348 41.0238 102.538C41.9611 102.727 45.7104 100.07 45.7104 100.07C45.7104 100.07 50.0221 89.8201 49.6472 86.9729C49.2722 84.1257 49.4597 75.7739 43.8358 75.3943Z" fill="#00B0FF"/>
<path d="M57.3331 64.48C61.3191 64.48 64.5504 62.7804 64.5504 60.6838C64.5504 58.5872 61.3191 56.8875 57.3331 56.8875C53.347 56.8875 50.1157 58.5872 50.1157 60.6838C50.1157 62.7804 53.347 64.48 57.3331 64.48Z" fill="#2F2E41"/>
<path d="M50.5842 67.7068C51.9819 67.7068 53.115 64.8599 53.115 61.3481C53.115 57.8363 51.9819 54.9894 50.5842 54.9894C49.1865 54.9894 48.0535 57.8363 48.0535 61.3481C48.0535 64.8599 49.1865 67.7068 50.5842 67.7068Z" fill="#2F2E41"/>
</svg>
