<svg width="205" height="78" viewBox="0 0 205 78" fill="none" xmlns="http://www.w3.org/2000/svg">
<mask id="mask0" mask-type="alpha" maskUnits="userSpaceOnUse" x="67" y="0" width="73" height="27">
<line x1="68.5" y1="10.0264" x2="68.5" y2="16.9737" stroke="black" stroke-width="3" stroke-linecap="round"/>
<line x1="80.1667" y1="8.60535" x2="80.1667" y2="18.3948" stroke="black" stroke-width="3" stroke-linecap="round"/>
<line x1="91.8333" y1="5.76318" x2="91.8333" y2="22.6579" stroke="black" stroke-width="3" stroke-linecap="round"/>
<line x1="103.5" y1="1.5" x2="103.5" y2="25.5" stroke="black" stroke-width="3" stroke-linecap="round"/>
<line x1="113.5" y1="5.76318" x2="113.5" y2="22.6579" stroke="black" stroke-width="3" stroke-linecap="round"/>
<line x1="125.167" y1="8.60535" x2="125.167" y2="18.3948" stroke="black" stroke-width="3" stroke-linecap="round"/>
<line x1="138.5" y1="10.0264" x2="138.5" y2="16.9737" stroke="black" stroke-width="3" stroke-linecap="round"/>
</mask>
<g mask="url(#mask0)">
<rect x="58.6665" width="83.3333" height="27" fill="url(#paint0_linear)"/>
</g>
<mask id="mask1" mask-type="alpha" maskUnits="userSpaceOnUse" x="67" y="51" width="73" height="27">
<line x1="68.5" y1="61.0262" x2="68.5" y2="67.9736" stroke="black" stroke-width="3" stroke-linecap="round"/>
<line x1="80.1667" y1="59.6052" x2="80.1667" y2="69.3947" stroke="black" stroke-width="3" stroke-linecap="round"/>
<line x1="91.8333" y1="56.7632" x2="91.8333" y2="73.6579" stroke="black" stroke-width="3" stroke-linecap="round"/>
<line x1="103.5" y1="52.5" x2="103.5" y2="76.5" stroke="black" stroke-width="3" stroke-linecap="round"/>
<line x1="113.5" y1="56.7632" x2="113.5" y2="73.6579" stroke="black" stroke-width="3" stroke-linecap="round"/>
<line x1="125.167" y1="59.6052" x2="125.167" y2="69.3947" stroke="black" stroke-width="3" stroke-linecap="round"/>
<line x1="138.5" y1="61.0264" x2="138.5" y2="67.9737" stroke="black" stroke-width="3" stroke-linecap="round"/>
</mask>
<g mask="url(#mask1)">
<rect x="58.6665" y="51" width="83.3333" height="27" fill="url(#paint1_linear)"/>
</g>
<path d="M0.704 39.212C0.704 37.6867 1.01933 36.33 1.65 35.142C2.29533 33.9393 3.20467 33.008 4.378 32.348C5.55133 31.6733 6.90067 31.336 8.426 31.336C10.362 31.336 11.99 31.8567 13.31 32.898C14.63 33.9247 15.4807 35.3253 15.862 37.1H11.22C10.9413 36.5133 10.5527 36.066 10.054 35.758C9.57 35.45 9.00533 35.296 8.36 35.296C7.36267 35.296 6.56333 35.6553 5.962 36.374C5.37533 37.078 5.082 38.024 5.082 39.212C5.082 40.4147 5.37533 41.3753 5.962 42.094C6.56333 42.798 7.36267 43.15 8.36 43.15C9.00533 43.15 9.57 42.996 10.054 42.688C10.5527 42.38 10.9413 41.9327 11.22 41.346H15.862C15.4807 43.1207 14.63 44.5287 13.31 45.57C11.99 46.5967 10.362 47.11 8.426 47.11C6.90067 47.11 5.55133 46.78 4.378 46.12C3.20467 45.4453 2.29533 44.514 1.65 43.326C1.01933 42.1233 0.704 40.752 0.704 39.212ZM23.6459 47.154C22.4139 47.154 21.3065 46.8973 20.3239 46.384C19.3559 45.8707 18.5932 45.1373 18.0359 44.184C17.4785 43.2307 17.1999 42.1087 17.1999 40.818C17.1999 39.542 17.4785 38.4273 18.0359 37.474C18.6079 36.5207 19.3779 35.7873 20.3459 35.274C21.3285 34.7607 22.4359 34.504 23.6679 34.504C24.8999 34.504 25.9999 34.7607 26.9679 35.274C27.9505 35.7873 28.7205 36.5207 29.2779 37.474C29.8499 38.4273 30.1359 39.542 30.1359 40.818C30.1359 42.094 29.8499 43.216 29.2779 44.184C28.7205 45.1373 27.9505 45.8707 26.9679 46.384C25.9852 46.8973 24.8779 47.154 23.6459 47.154ZM23.6459 43.414C24.2472 43.414 24.7459 43.194 25.1419 42.754C25.5525 42.2993 25.7579 41.654 25.7579 40.818C25.7579 39.982 25.5525 39.344 25.1419 38.904C24.7459 38.464 24.2545 38.244 23.6679 38.244C23.0812 38.244 22.5899 38.464 22.1939 38.904C21.7979 39.344 21.5999 39.982 21.5999 40.818C21.5999 41.6687 21.7905 42.314 22.1719 42.754C22.5532 43.194 23.0445 43.414 23.6459 43.414ZM31.1862 40.818C31.1862 39.542 31.4135 38.4273 31.8682 37.474C32.3375 36.5207 32.9755 35.7873 33.7822 35.274C34.5889 34.7607 35.4835 34.504 36.4662 34.504C37.2582 34.504 37.9622 34.6727 38.5782 35.01C39.2089 35.3327 39.7002 35.78 40.0522 36.352V30.72H44.3862V47H40.0522V45.284C39.7149 45.856 39.2382 46.3107 38.6222 46.648C38.0062 46.9853 37.2802 47.154 36.4442 47.154C35.4615 47.154 34.5669 46.8973 33.7602 46.384C32.9682 45.8707 32.3375 45.1373 31.8682 44.184C31.4135 43.216 31.1862 42.094 31.1862 40.818ZM40.0742 40.818C40.0742 40.026 39.8542 39.4027 39.4142 38.948C38.9889 38.4933 38.4609 38.266 37.8302 38.266C37.1849 38.266 36.6495 38.4933 36.2242 38.948C35.7989 39.388 35.5862 40.0113 35.5862 40.818C35.5862 41.61 35.7989 42.2407 36.2242 42.71C36.6495 43.1647 37.1849 43.392 37.8302 43.392C38.4609 43.392 38.9889 43.1647 39.4142 42.71C39.8542 42.2553 40.0742 41.6247 40.0742 40.818ZM58.6353 40.686C58.6353 41.0233 58.6133 41.3607 58.5693 41.698H50.4073C50.4513 42.3727 50.6347 42.8787 50.9573 43.216C51.2947 43.5387 51.72 43.7 52.2333 43.7C52.952 43.7 53.4653 43.3773 53.7733 42.732H58.3713C58.1807 43.5827 57.8067 44.3453 57.2493 45.02C56.7067 45.68 56.0173 46.2007 55.1813 46.582C54.3453 46.9633 53.4213 47.154 52.4093 47.154C51.192 47.154 50.1067 46.8973 49.1533 46.384C48.2147 45.8707 47.474 45.1373 46.9313 44.184C46.4033 43.2307 46.1393 42.1087 46.1393 40.818C46.1393 39.5273 46.4033 38.4127 46.9313 37.474C47.4593 36.5207 48.1927 35.7873 49.1313 35.274C50.0847 34.7607 51.1773 34.504 52.4093 34.504C53.6267 34.504 54.7047 34.7533 55.6433 35.252C56.582 35.7507 57.3153 36.4693 57.8433 37.408C58.3713 38.332 58.6353 39.4247 58.6353 40.686ZM54.2353 39.608C54.2353 39.08 54.0593 38.6693 53.7073 38.376C53.3553 38.068 52.9153 37.914 52.3873 37.914C51.8593 37.914 51.4267 38.0607 51.0893 38.354C50.752 38.6327 50.532 39.0507 50.4293 39.608H54.2353Z" fill="#A16AE8"/>
<path d="M70.212 44.47H64.712L63.876 47H59.344L64.998 31.49H69.97L75.602 47H71.048L70.212 44.47ZM69.134 41.17L67.462 36.154L65.812 41.17H69.134ZM76.3034 40.818C76.3034 39.542 76.5674 38.4273 77.0954 37.474C77.6234 36.5207 78.3567 35.7873 79.2954 35.274C80.2487 34.7607 81.3341 34.504 82.5514 34.504C84.1207 34.504 85.4407 34.9367 86.5114 35.802C87.5821 36.6527 88.2714 37.848 88.5794 39.388H84.0034C83.7394 38.5813 83.2261 38.178 82.4634 38.178C81.9207 38.178 81.4881 38.4053 81.1654 38.86C80.8574 39.3 80.7034 39.9527 80.7034 40.818C80.7034 41.6833 80.8574 42.3433 81.1654 42.798C81.4881 43.2527 81.9207 43.48 82.4634 43.48C83.2407 43.48 83.7541 43.0767 84.0034 42.27H88.5794C88.2714 43.7953 87.5821 44.9907 86.5114 45.856C85.4407 46.7213 84.1207 47.154 82.5514 47.154C81.3341 47.154 80.2487 46.8973 79.2954 46.384C78.3567 45.8707 77.6234 45.1373 77.0954 44.184C76.5674 43.2307 76.3034 42.1087 76.3034 40.818ZM96.1127 47.154C94.8807 47.154 93.7733 46.8973 92.7907 46.384C91.8227 45.8707 91.06 45.1373 90.5027 44.184C89.9453 43.2307 89.6667 42.1087 89.6667 40.818C89.6667 39.542 89.9453 38.4273 90.5027 37.474C91.0747 36.5207 91.8447 35.7873 92.8127 35.274C93.7953 34.7607 94.9027 34.504 96.1347 34.504C97.3667 34.504 98.4667 34.7607 99.4347 35.274C100.417 35.7873 101.187 36.5207 101.745 37.474C102.317 38.4273 102.603 39.542 102.603 40.818C102.603 42.094 102.317 43.216 101.745 44.184C101.187 45.1373 100.417 45.8707 99.4347 46.384C98.452 46.8973 97.3447 47.154 96.1127 47.154ZM96.1127 43.414C96.714 43.414 97.2127 43.194 97.6087 42.754C98.0193 42.2993 98.2247 41.654 98.2247 40.818C98.2247 39.982 98.0193 39.344 97.6087 38.904C97.2127 38.464 96.7213 38.244 96.1347 38.244C95.548 38.244 95.0567 38.464 94.6607 38.904C94.2647 39.344 94.0667 39.982 94.0667 40.818C94.0667 41.6687 94.2573 42.314 94.6387 42.754C95.02 43.194 95.5113 43.414 96.1127 43.414ZM116.985 34.658V47H112.651V45.24C112.284 45.7973 111.778 46.252 111.133 46.604C110.488 46.9413 109.747 47.11 108.911 47.11C107.474 47.11 106.337 46.6407 105.501 45.702C104.68 44.7487 104.269 43.458 104.269 41.83V34.658H108.559V41.28C108.559 41.984 108.742 42.5413 109.109 42.952C109.49 43.348 109.989 43.546 110.605 43.546C111.236 43.546 111.734 43.348 112.101 42.952C112.468 42.5413 112.651 41.984 112.651 41.28V34.658H116.985ZM124.697 47.154C123.582 47.154 122.585 46.9707 121.705 46.604C120.84 46.2227 120.15 45.7093 119.637 45.064C119.138 44.404 118.86 43.6633 118.801 42.842H122.981C123.04 43.238 123.223 43.546 123.531 43.766C123.839 43.986 124.22 44.096 124.675 44.096C125.027 44.096 125.306 44.0227 125.511 43.876C125.716 43.7293 125.819 43.5387 125.819 43.304C125.819 42.996 125.65 42.7687 125.313 42.622C124.976 42.4753 124.418 42.314 123.641 42.138C122.761 41.962 122.028 41.764 121.441 41.544C120.854 41.324 120.341 40.9647 119.901 40.466C119.476 39.9673 119.263 39.2927 119.263 38.442C119.263 37.7087 119.461 37.0487 119.857 36.462C120.253 35.8607 120.832 35.384 121.595 35.032C122.372 34.68 123.304 34.504 124.389 34.504C126.002 34.504 127.271 34.9 128.195 35.692C129.119 36.484 129.654 37.5253 129.801 38.816H125.907C125.834 38.42 125.658 38.1193 125.379 37.914C125.115 37.694 124.756 37.584 124.301 37.584C123.949 37.584 123.678 37.65 123.487 37.782C123.311 37.914 123.223 38.0973 123.223 38.332C123.223 38.6253 123.392 38.8527 123.729 39.014C124.066 39.1607 124.609 39.3147 125.357 39.476C126.252 39.6667 126.992 39.8793 127.579 40.114C128.18 40.3487 128.701 40.73 129.141 41.258C129.596 41.7713 129.823 42.4753 129.823 43.37C129.823 44.0887 129.61 44.734 129.185 45.306C128.774 45.878 128.18 46.3327 127.403 46.67C126.64 46.9927 125.738 47.154 124.697 47.154ZM139.225 43.326V47H137.355C134.202 47 132.625 45.438 132.625 42.314V38.244H131.107V34.658H132.625V31.666H136.959V34.658H139.203V38.244H136.959V42.38C136.959 42.7173 137.032 42.9593 137.179 43.106C137.34 43.2527 137.604 43.326 137.971 43.326H139.225ZM143.381 33.514C142.618 33.514 142.002 33.3087 141.533 32.898C141.078 32.4727 140.851 31.9447 140.851 31.314C140.851 30.6687 141.078 30.1333 141.533 29.708C142.002 29.2827 142.618 29.07 143.381 29.07C144.129 29.07 144.73 29.2827 145.185 29.708C145.654 30.1333 145.889 30.6687 145.889 31.314C145.889 31.9447 145.654 32.4727 145.185 32.898C144.73 33.3087 144.129 33.514 143.381 33.514ZM145.515 34.658V47H141.203V34.658H145.515ZM147.266 40.818C147.266 39.542 147.53 38.4273 148.058 37.474C148.586 36.5207 149.32 35.7873 150.258 35.274C151.212 34.7607 152.297 34.504 153.514 34.504C155.084 34.504 156.404 34.9367 157.474 35.802C158.545 36.6527 159.234 37.848 159.542 39.388H154.966C154.702 38.5813 154.189 38.178 153.426 38.178C152.884 38.178 152.451 38.4053 152.128 38.86C151.82 39.3 151.666 39.9527 151.666 40.818C151.666 41.6833 151.82 42.3433 152.128 42.798C152.451 43.2527 152.884 43.48 153.426 43.48C154.204 43.48 154.717 43.0767 154.966 42.27H159.542C159.234 43.7953 158.545 44.9907 157.474 45.856C156.404 46.7213 155.084 47.154 153.514 47.154C152.297 47.154 151.212 46.8973 150.258 46.384C149.32 45.8707 148.586 45.1373 148.058 44.184C147.53 43.2307 147.266 42.1087 147.266 40.818Z" fill="#BC3A80"/>
<path d="M163.424 47.176C162.661 47.176 162.045 46.9707 161.576 46.56C161.121 46.1347 160.894 45.5993 160.894 44.954C160.894 44.3087 161.121 43.7733 161.576 43.348C162.045 42.9227 162.661 42.71 163.424 42.71C164.172 42.71 164.773 42.9227 165.228 43.348C165.697 43.7733 165.932 44.3087 165.932 44.954C165.932 45.5847 165.697 46.1127 165.228 46.538C164.773 46.9633 164.172 47.176 163.424 47.176Z" fill="#603F8B"/>
<path d="M204 41C204 48.1158 197.798 54 190 54C182.202 54 176 48.1158 176 41C176 33.8842 182.202 28 190 28C197.798 28 204 33.8842 204 41Z" stroke="url(#paint2_linear)" stroke-width="2"/>
<ellipse cx="189.85" cy="40.86" rx="11.25" ry="10.5" fill="url(#paint3_radial)"/>
<path d="M190.303 31.9702C188.787 31.9702 187.554 33.5215 187.554 35.4287V40.4702C187.554 42.3774 188.787 43.9286 190.303 43.9286C191.819 43.9286 193.052 42.3774 193.052 40.4702V35.4287C193.052 33.5215 191.819 31.9702 190.303 31.9702ZM190.303 43.1889C189.223 43.1889 188.329 42.1649 188.186 40.8394H192.419C192.277 42.1649 191.383 43.1889 190.303 43.1889ZM192.441 40.101H188.165V35.4287C188.165 33.9292 189.124 32.71 190.303 32.71C191.482 32.71 192.441 33.9292 192.441 35.4287V40.101Z" fill="#FEF8F8"/>
<path d="M194.579 38.6228C194.41 38.6228 194.273 38.7875 194.273 38.992V40.4702C194.273 43.1198 192.493 45.274 190.303 45.274C188.113 45.274 186.332 43.1198 186.332 40.4702V38.992C186.332 38.7875 186.195 38.6228 186.026 38.6228C185.858 38.6228 185.721 38.7875 185.721 38.992V40.4702C185.721 43.4014 187.613 45.804 189.998 45.9952V48.2305H188.47C188.302 48.2305 188.164 48.3965 188.164 48.601C188.164 48.8042 188.302 48.9702 188.47 48.9702H192.136C192.304 48.9702 192.441 48.8042 192.441 48.601C192.441 48.3965 192.304 48.2305 192.136 48.2305H190.608V45.9952C192.992 45.804 194.885 43.4014 194.885 40.4702V38.992C194.885 38.7875 194.747 38.6228 194.579 38.6228Z" fill="#FEF8F8"/>
<defs>
<linearGradient id="paint0_linear" x1="100.333" y1="0" x2="100.333" y2="27" gradientUnits="userSpaceOnUse">
<stop stop-color="#434ADB"/>
<stop offset="1" stop-color="#BC3A80"/>
</linearGradient>
<linearGradient id="paint1_linear" x1="100.333" y1="51" x2="100.333" y2="78" gradientUnits="userSpaceOnUse">
<stop stop-color="#434ADB"/>
<stop offset="1" stop-color="#BC3A80"/>
</linearGradient>
<linearGradient id="paint2_linear" x1="190" y1="27" x2="190" y2="55" gradientUnits="userSpaceOnUse">
<stop stop-color="#C9352F"/>
<stop offset="0.197917" stop-color="#C9352F" stop-opacity="0.541667"/>
<stop offset="1" stop-color="#EFA42D"/>
</linearGradient>
<radialGradient id="paint3_radial" cx="0" cy="0" r="1" gradientUnits="userSpaceOnUse" gradientTransform="translate(189.85 40.86) rotate(90) scale(10.5 11.25)">
<stop stop-color="#E34B87"/>
<stop offset="1" stop-color="#A16AE8"/>
</radialGradient>
</defs>
</svg>
