<svg width="303" height="223" viewBox="0 0 303 223" fill="none" xmlns="http://www.w3.org/2000/svg">
<g clip-path="url(#clip0)">
<path d="M112.319 64.4427C61.644 109.502 87.1758 128.885 56.1597 128.885C25.1435 128.885 0 100.033 0 64.4427C0 28.852 25.1435 0 56.1597 0C87.1758 0 162.995 19.3831 112.319 64.4427Z" fill="#F2F2F2"/>
<path d="M124.23 130.974C124.23 138.463 100.181 155.485 68.4753 155.485C36.7698 155.485 9.28784 138.463 9.28784 130.974C9.28784 129.101 11.9798 131.427 14.8824 129.806C23.3325 125.081 43.4816 128.564 66.3507 128.37C67.0562 128.363 67.7644 128.359 68.4753 128.359C100.181 128.359 124.23 123.485 124.23 130.974Z" fill="#3F3D56"/>
<path opacity="0.1" d="M124.23 130.974C124.23 138.463 100.181 155.485 68.4753 155.485C36.7698 155.485 9.28784 138.463 9.28784 130.974C9.28784 129.101 11.9798 131.427 14.8824 129.806C23.3325 125.081 43.4816 128.564 66.3507 128.37C67.0562 128.363 67.7644 128.359 68.4753 128.359C100.181 128.359 124.23 123.485 124.23 130.974Z" fill="black"/>
<path d="M124.103 130.834C124.103 138.323 98.4007 144.397 66.6952 144.397C34.9897 144.397 9.28784 138.323 9.28784 130.834C9.28784 128.96 10.892 127.179 13.7946 125.559C22.2447 120.834 41.7016 117.476 64.5706 117.281C65.2761 117.274 65.9843 117.271 66.6952 117.271C98.4007 117.271 124.103 123.345 124.103 130.834Z" fill="#3F3D56"/>
<path opacity="0.1" d="M65.2533 117.56C62.8148 122.121 59.508 125.99 55.5807 128.877C51.6535 131.763 47.2077 133.592 42.5769 134.226C37.946 134.86 33.2501 134.282 28.8413 132.537C24.4326 130.792 20.4254 127.924 17.1201 124.148C25.1304 120.387 43.5746 117.714 65.2533 117.56Z" fill="black"/>
<path d="M39.5491 128.639C55.2788 128.639 68.0302 112.962 68.0302 93.6229C68.0302 74.284 55.2788 58.6066 39.5491 58.6066C23.8193 58.6066 11.0679 74.284 11.0679 93.6229C11.0679 112.962 23.8193 128.639 39.5491 128.639Z" fill="#EC7580"/>
<path d="M70.5345 39.3682V47.5768L66.8611 52.4576C66.8611 52.4576 65.3144 51.792 65.3144 47.3549L64.7344 40.9211L70.5345 39.3682Z" fill="#FFB9B9"/>
<path d="M66.8612 47.5768C66.8612 47.5768 72.8547 42.9179 73.048 41.3649C73.2414 39.8119 81.7483 32.7126 80.3949 37.1497C79.0415 41.5867 74.7881 43.5834 74.7881 43.5834C74.7881 43.5834 71.5013 53.7887 68.6013 53.5669C65.7012 53.345 65.7012 49.1298 66.8612 47.5768Z" fill="#FFB9B9"/>
<path d="M63.3811 97.4939L62.801 101.488L65.8945 100.6V97.4939H63.3811Z" fill="#FFB9B9"/>
<path d="M63.9611 99.7125C63.9611 99.7125 67.5364 97.2819 67.6822 98.3863C67.8279 99.4906 69.3746 103.706 70.1479 104.15C70.9213 104.593 71.888 109.474 70.1479 109.252C68.8002 109.08 63.8573 106.114 61.6966 104.785C61.4306 104.62 61.2298 104.345 61.1353 104.016C61.0409 103.686 61.0601 103.328 61.189 103.014C61.3157 102.745 61.4031 102.454 61.4477 102.153C61.4477 101.709 63.9611 99.7125 63.9611 99.7125Z" fill="#2F2E41"/>
<path d="M62.2211 54.6761C62.2211 54.6761 76.3349 62.2192 74.9815 67.9874C73.6281 73.7556 68.6013 98.1595 68.6013 98.1595C68.6013 98.1595 62.9945 99.7125 62.6078 98.1595C62.2212 96.6066 66.2813 72.4245 65.8946 71.537C65.5079 70.6496 58.3544 64.8814 58.3544 64.8814L43.6606 57.7821L49.8475 51.1265L62.2211 54.6761Z" fill="#2F2E41"/>
<path d="M72.8546 98.825L74.5948 103.928L71.5013 105.481L69.5679 101.487L72.8546 98.825Z" fill="#FFB9B9"/>
<path d="M62.4144 18.2921C62.4144 18.2921 60.6743 20.9543 62.0277 22.2855C63.381 23.6166 62.4144 28.4974 62.4144 28.4974L60.6743 34.0437L53.7141 32.4907V23.3947L54.1008 18.9576C54.1008 18.9576 57.5809 15.1861 57.9676 12.302C58.3542 9.41791 62.4144 18.2921 62.4144 18.2921Z" fill="#FFB9B9"/>
<path opacity="0.1" d="M62.4144 18.2921C62.4144 18.2921 60.6743 20.9543 62.0277 22.2855C63.381 23.6166 62.4144 28.4974 62.4144 28.4974L60.6743 34.0437L53.7141 32.4907V23.3947L54.1008 18.9576C54.1008 18.9576 57.5809 15.1861 57.9676 12.302C58.3542 9.41791 62.4144 18.2921 62.4144 18.2921Z" fill="black"/>
<path d="M50.8141 52.9013C50.8141 52.9013 59.901 64.4377 59.901 64.8814C59.901 65.3251 64.7344 74.4212 64.7344 74.4212L74.208 98.6033C74.208 98.6033 70.5346 104.371 68.9879 103.928C67.4412 103.484 56.4209 77.749 56.4209 77.749C56.4209 77.749 54.4875 71.9808 49.2674 70.6497C44.0472 69.3185 39.9871 64.6596 41.9205 59.3351C43.8539 54.0106 50.8141 52.9013 50.8141 52.9013Z" fill="#2F2E41"/>
<path d="M62.4144 19.845C65.8313 19.845 68.6012 16.6665 68.6012 12.7457C68.6012 8.82484 65.8313 5.64636 62.4144 5.64636C58.9975 5.64636 56.2275 8.82484 56.2275 12.7457C56.2275 16.6665 58.9975 19.845 62.4144 19.845Z" fill="#FFB9B9"/>
<path d="M62.2211 24.2821C62.2211 24.2821 61.4477 29.3848 60.6744 29.8285C59.901 30.2722 59.321 31.8252 57.581 29.6066C55.8409 27.3881 54.2942 22.951 54.2942 22.951L48.3007 31.3815L47.7207 54.6761C47.7207 54.6761 54.4875 52.6795 56.6143 54.6761C58.741 56.6728 63.3811 56.451 63.3811 56.451L62.4144 52.0139L63.1878 44.4708L62.9944 37.5934L62.8011 32.7126L62.2211 24.2821Z" fill="#F2F2F2"/>
<path d="M61.54 20.5479C61.54 20.5479 64.1545 22.0636 64.3478 22.951C64.5412 23.8384 68.0213 25.6132 68.0213 25.6132C68.0213 25.6132 69.3746 27.1662 69.3746 28.0536C69.3746 28.941 64.7345 39.1463 64.7345 39.1463C64.7345 39.1463 63.7678 46.0238 64.1545 47.3549C64.5412 48.686 63.3811 53.7887 63.3811 53.7887L65.7012 56.8946H63.5745C63.5745 56.8946 61.2544 55.5635 61.2544 54.898C61.2544 54.2324 61.6411 49.5735 61.8344 47.5768C62.0277 45.5801 62.0277 38.4808 61.6411 36.0404C61.2544 33.6 61.4477 27.1662 61.4477 25.6132C61.4477 24.0602 61.54 20.5479 61.54 20.5479Z" fill="#3F3D56"/>
<path d="M55.5508 17.1791C55.5508 17.1791 54.6808 17.4046 52.1674 18.2921C49.654 19.1795 45.7872 20.5106 44.4338 22.2854C43.4839 23.598 42.6425 25.0092 41.9204 26.5007L42.6938 42.4742C42.6938 42.4742 41.1471 45.802 41.3404 47.5768C41.5338 49.3516 43.0805 49.5735 41.9204 53.345C40.7604 57.1165 38.4403 60.4443 40.5671 60.8881C42.6938 61.3318 48.3006 59.7788 50.814 60.6662C53.3274 61.5536 56.2275 57.3384 56.2275 57.3384C56.2275 57.3384 52.3607 57.7821 52.9407 56.0073C53.5208 54.2324 59.9009 34.2656 58.5476 29.8285C57.1942 25.3914 55.5508 17.1791 55.5508 17.1791Z" fill="#EC7580"/>
<path d="M68.4078 26.9444L69.3745 27.8318C69.3745 27.8318 72.0812 38.9245 71.3079 40.0338C70.5345 41.1431 64.3477 43.5835 63.961 42.0305C63.5743 40.4775 68.4078 26.9444 68.4078 26.9444Z" fill="#3F3D56"/>
<path d="M39.7936 34.7092C39.7936 34.7092 36.8936 44.249 36.8936 46.9112C36.8936 49.5735 37.2802 65.1033 37.2802 65.1033C37.2802 65.1033 37.4736 71.7589 41.5337 69.0966C45.5938 66.4344 41.5337 64.6595 41.5337 64.6595C41.5337 64.6595 41.727 47.1331 43.2737 44.6927C44.8204 42.2523 45.4005 38.7026 45.4005 38.7026L39.7936 34.7092Z" fill="#FFB9B9"/>
<path d="M71.5013 103.706C71.5013 103.706 74.4014 101.931 74.9814 103.262C75.5615 104.593 78.6549 111.914 78.2682 112.802C77.8815 113.689 75.7548 117.239 73.2414 116.352C70.728 115.464 70.5347 110.805 70.5347 110.805L70.3413 105.481L71.5013 103.706Z" fill="#2F2E41"/>
<path d="M63.6258 11.0308C63.1996 11.261 62.694 11.3985 62.4262 11.8432C62.2278 12.1727 62.2081 12.6008 62.0633 12.9652C61.9053 13.3261 61.6333 13.6042 61.3027 13.7429C60.9722 13.8816 60.608 13.8704 60.2844 13.7117C60.2054 13.2698 59.9814 12.8796 59.6589 12.6216C59.496 12.4986 59.303 12.4389 59.1082 12.4512C58.9135 12.4634 58.7274 12.547 58.5772 12.6897C58.1787 13.1257 58.3197 13.8859 58.1338 14.4806C57.9592 14.8989 57.719 15.2768 57.4253 15.5954C57.0021 16.1556 56.665 16.8127 56.1554 17.2685C55.6458 17.7243 54.873 17.9218 54.3667 17.4612C53.9409 17.0739 53.8527 16.3593 53.9561 15.7472C54.0595 15.1352 54.3158 14.5716 54.4604 13.9707C54.9303 12.018 54.1812 9.93324 54.413 7.92503C54.7099 5.3518 56.6159 3.31922 58.7434 2.43711C59.6287 2.02343 60.5979 1.90559 61.5391 2.09722C62.512 2.3465 63.3432 3.05727 64.275 3.46377C65.2715 3.89848 66.355 3.97439 67.3978 4.22852C68.4406 4.48266 69.5137 4.97403 70.1188 5.98113C70.5409 6.68356 70.686 7.55591 71.0358 8.30882C71.4384 9.16821 72.0906 9.83869 72.8791 10.2039L71.7768 10.1318C71.9616 10.6964 72.2629 11.2011 72.6551 11.6027C72.1382 11.7237 71.6008 11.6422 71.1291 11.3712C71.1376 11.6312 71.1925 11.8865 71.2903 12.1212C71.3882 12.3558 71.5269 12.565 71.698 12.7358C70.8498 12.7065 69.9553 12.6616 69.2385 12.1402C68.8874 11.8848 68.6012 11.5291 68.2708 11.2397C67.5666 10.6226 66.6929 10.3297 65.8413 10.0493C65.3941 9.90198 64.8558 9.69718 64.4513 10.0272C64.1145 10.3021 64.0613 10.7956 63.6258 11.0308Z" fill="#2F2E41"/>
<path d="M44.8206 23.8384L41.9205 26.5006L38.0537 36.7059C38.0537 36.7059 43.4672 41.5867 44.8206 40.9211C46.1739 40.2556 48.494 28.4973 48.494 28.4973L44.8206 23.8384Z" fill="#3F3D56"/>
<path d="M88.3174 36.0156L76.1144 43.7072C76.0437 43.7611 75.9635 43.7966 75.8795 43.8111C75.7955 43.8257 75.7098 43.8189 75.6283 43.7913C75.5469 43.7638 75.4717 43.7161 75.408 43.6515C75.3444 43.587 75.2938 43.5073 75.2599 43.4179L72.2706 36.2478C72.2139 36.0435 72.2231 35.8225 72.2965 35.6252C72.3699 35.428 72.5025 35.2675 72.6704 35.173L82.8019 29.1806C82.9267 29.0945 83.0748 29.0642 83.2178 29.0956C83.3609 29.1269 83.4888 29.2178 83.5771 29.3506L88.6379 34.8217C88.6877 34.9236 88.719 35.036 88.7298 35.1522C88.7406 35.2684 88.7307 35.3858 88.7007 35.4975C88.6707 35.6092 88.6213 35.7127 88.5554 35.8017C88.4895 35.8908 88.4085 35.9636 88.3174 36.0156Z" fill="#2F2E41"/>
<path d="M87.503 34.9565L76.063 42.4596L73.0186 36.1637L82.8326 30.0396L87.503 34.9565Z" fill="#E34B87"/>
<path d="M77.9043 32.7877C77.9639 32.7058 77.9628 32.5921 77.902 32.5338C77.8411 32.4755 77.7434 32.4946 77.6838 32.5766C77.6242 32.6585 77.6253 32.7722 77.6862 32.8305C77.7471 32.8888 77.8447 32.8697 77.9043 32.7877Z" fill="#F2F2F2"/>
<path d="M82.1152 39.194C82.1549 39.1394 82.1542 39.0636 82.1136 39.0247C82.073 38.9858 82.0079 38.9986 81.9682 39.0532C81.9285 39.1079 81.9292 39.1837 81.9697 39.2225C82.0103 39.2614 82.0755 39.2486 82.1152 39.194Z" fill="#F2F2F2"/>
<path d="M24.6766 128.3C24.6766 133.382 22.044 135.157 18.7959 135.157C18.7207 135.157 18.6455 135.155 18.5708 135.154C18.4203 135.15 18.2709 135.142 18.1237 135.13C15.1923 134.892 12.9153 133.026 12.9153 128.3C12.9153 123.41 18.3613 117.238 18.7716 116.78L18.7721 116.78C18.7878 116.762 18.7959 116.753 18.7959 116.753C18.7959 116.753 24.6766 123.218 24.6766 128.3Z" fill="#6C63FF"/>
<path d="M18.5816 134.379L20.7326 130.931L18.5762 134.758L18.5708 135.154C18.4204 135.15 18.271 135.142 18.1238 135.13L18.3554 130.046L18.3538 130.006L18.3576 129.999L18.3798 129.519L16.218 125.682L18.3863 129.158L18.3917 129.26L18.5665 125.419L16.716 121.454L18.5892 124.745L18.7716 116.78L18.7722 116.753V116.78L18.7419 123.06L20.5843 120.57L18.7343 123.601L18.6856 127.04L20.4062 123.739L18.6785 127.547L18.6515 129.459L21.1483 124.864L18.6417 130.126L18.5816 134.379Z" fill="#3F3D56"/>
<path d="M106.814 117.795C106.814 122.877 104.182 124.652 100.934 124.652C100.858 124.652 100.783 124.651 100.708 124.649C100.558 124.645 100.409 124.637 100.261 124.625C97.33 124.387 95.053 122.521 95.053 117.795C95.053 112.905 100.499 106.733 100.909 106.275L100.91 106.275C100.926 106.257 100.934 106.248 100.934 106.248C100.934 106.248 106.814 112.713 106.814 117.795Z" fill="#6C63FF"/>
<path d="M100.719 123.874L102.87 120.426L100.714 124.253L100.708 124.649C100.558 124.645 100.408 124.637 100.261 124.625L100.493 119.541L100.491 119.501L100.495 119.494L100.517 119.014L98.3555 115.177L100.524 118.653L100.529 118.755L100.704 114.914L98.8534 110.95L100.727 114.24L100.909 106.275L100.91 106.248V106.275L100.879 112.555L102.722 110.065L100.872 113.096L100.823 116.536L102.544 113.234L100.816 117.042L100.789 118.954L103.286 114.359L100.779 119.621L100.719 123.874Z" fill="#3F3D56"/>
<path d="M228.67 76.2981H130.905V138.068H228.67V76.2981Z" fill="#F2F2F2"/>
<path opacity="0.3" d="M147.289 107.864C151.739 107.864 155.346 103.725 155.346 98.6185C155.346 93.5121 151.739 89.3726 147.289 89.3726C142.839 89.3726 139.231 93.5121 139.231 98.6185C139.231 103.725 142.839 107.864 147.289 107.864Z" fill="#6C63FF"/>
<path opacity="0.3" d="M179.787 107.864C184.237 107.864 187.845 103.725 187.845 98.6185C187.845 93.5121 184.237 89.3726 179.787 89.3726C175.337 89.3726 171.73 93.5121 171.73 98.6185C171.73 103.725 175.337 107.864 179.787 107.864Z" fill="#6C63FF"/>
<path opacity="0.3" d="M212.286 107.864C216.736 107.864 220.343 103.725 220.343 98.6185C220.343 93.5121 216.736 89.3726 212.286 89.3726C207.836 89.3726 204.228 93.5121 204.228 98.6185C204.228 103.725 207.836 107.864 212.286 107.864Z" fill="#6C63FF"/>
<path opacity="0.3" d="M158.166 114.799H136.142V117.264H158.166V114.799Z" fill="#6C63FF"/>
<path opacity="0.3" d="M190.934 114.799H168.91V117.264H190.934V114.799Z" fill="#6C63FF"/>
<path d="M223.701 114.799H201.677V117.264H223.701V114.799Z" fill="#82B9E9"/>
<path d="M303 197.111C303 205.021 277.6 223 244.113 223C210.626 223 181.6 205.021 181.6 197.111C181.6 195.133 184.443 197.59 187.509 195.879C196.434 190.888 217.715 194.567 241.869 194.361C242.614 194.354 243.362 194.35 244.113 194.35C277.6 194.35 303 189.202 303 197.111Z" fill="#3F3D56"/>
<path opacity="0.1" d="M303 197.111C303 205.021 277.6 223 244.113 223C210.626 223 181.6 205.021 181.6 197.111C181.6 195.133 184.443 197.59 187.509 195.879C196.434 190.888 217.715 194.567 241.869 194.361C242.614 194.354 243.362 194.35 244.113 194.35C277.6 194.35 303 189.202 303 197.111Z" fill="black"/>
<path d="M302.866 196.963C302.866 204.873 275.72 211.288 242.233 211.288C208.746 211.288 181.6 204.873 181.6 196.963C181.6 194.985 183.294 193.103 186.36 191.392C195.285 186.402 215.835 182.855 239.989 182.65C240.734 182.642 241.482 182.638 242.233 182.638C275.72 182.638 302.866 189.054 302.866 196.963Z" fill="#3F3D56"/>
<path d="M245.374 184.243C253.39 184.243 259.888 175.786 259.888 165.354C259.888 154.922 253.39 146.465 245.374 146.465C237.358 146.465 230.859 154.922 230.859 165.354C230.859 175.786 237.358 184.243 245.374 184.243Z" fill="#36334A"/>
<path d="M251.75 131.177L229.937 131.948C229.937 131.948 207.559 156.047 223.499 162.593C223.499 162.593 246.213 163.717 250.911 159.481C250.911 159.481 256.784 132.91 251.75 131.177ZM250.743 138.302L227.42 140.034C227.42 140.034 229.098 133.488 235.81 133.488C242.521 133.488 250.072 131.755 250.743 135.798C251.415 139.842 250.743 138.302 250.743 138.302Z" fill="#3F3D56"/>
<path d="M274.067 146.388L245.374 145.233L252.086 112.693C252.086 112.693 278.933 110.383 278.262 118.277C277.591 126.171 274.067 146.388 274.067 146.388Z" fill="#36334A"/>
<path d="M246.367 161.943C246.367 161.943 229.098 165.45 222.889 155.053C216.681 144.655 246.381 150.239 246.381 150.239L248.898 158.134L246.367 161.943Z" fill="#36334A"/>
<path d="M241.179 206.077C245.534 206.077 249.065 202.026 249.065 197.028C249.065 192.03 245.534 187.978 241.179 187.978C236.823 187.978 233.292 192.03 233.292 197.028C233.292 202.026 236.823 206.077 241.179 206.077Z" fill="#36334A"/>
<path d="M241.934 203.574C244.668 203.574 246.884 200.643 246.884 197.028C246.884 193.412 244.668 190.481 241.934 190.481C239.2 190.481 236.984 193.412 236.984 197.028C236.984 200.643 239.2 203.574 241.934 203.574Z" fill="#3F3D56"/>
<path d="M284.303 111.73C284.303 111.73 277.759 107.494 277.423 117.507L271.886 164.102H274.235L280.611 114.233C280.611 114.233 283.799 114.811 284.303 114.811C284.806 114.811 284.303 111.73 284.303 111.73Z" fill="#3F3D56"/>
<path d="M290.823 116.872C290.763 117.119 290.658 117.349 290.515 117.545C290.371 117.742 290.192 117.902 289.991 118.013C289.789 118.124 289.569 118.184 289.346 118.19C289.122 118.196 288.9 118.146 288.694 118.045L281.103 114.321L282.48 110.84L289.962 114.751C290.302 114.929 290.576 115.24 290.734 115.629C290.892 116.018 290.923 116.458 290.823 116.872Z" fill="#36334A"/>
<path d="M244.703 160.829C244.703 160.829 232.622 159.289 229.266 172.574C225.91 185.86 226.245 196.065 223.393 195.295C220.54 194.525 214.5 191.829 214.5 191.829L215.003 195.872C215.003 195.872 225.574 202.034 227.252 195.487C228.93 188.941 229.937 164.873 239.501 165.45C249.066 166.028 250.744 164.873 250.744 164.873L244.703 160.829Z" fill="#3F3D56"/>
<path d="M221.715 154.475C221.715 154.475 212.318 155.823 208.627 163.717C204.935 171.612 203.089 185.86 203.089 185.86H206.613C206.613 185.86 208.627 157.556 219.198 159.096L221.715 154.475Z" fill="#3F3D56"/>
<path d="M215.338 198.568L200.404 187.978C200.404 187.978 199.565 184.127 209.13 182.587C209.13 182.587 227.213 189.844 225.47 192.569C223.728 195.295 217.855 199.531 215.338 198.568Z" fill="#36334A"/>
<path d="M243.064 137.702C243.524 138.277 251.986 147.515 251.986 147.515C251.986 147.515 251.145 153.964 242.091 154.764L227.001 156.098C227.001 156.098 224.149 168.109 220.758 171.947C217.367 175.785 218.923 175.999 217.65 177.87C216.377 179.741 218.164 180.243 216.232 180.424C214.3 180.606 210.308 177.926 210.265 175.852C210.222 173.779 211.348 172.592 211.849 172.064C212.35 171.536 213.62 166.489 214.382 165.422C215.144 164.355 218.026 151.517 218.026 151.517C218.026 151.517 220.904 145.306 224.893 144.811C228.882 144.315 233.321 142.089 233.321 142.089" fill="#2F2E41"/>
<path opacity="0.1" d="M243.064 137.702C243.524 138.277 251.986 147.515 251.986 147.515C251.986 147.515 251.145 153.964 242.091 154.764L227.001 156.098C227.001 156.098 224.149 168.109 220.758 171.947C217.367 175.785 218.923 175.999 217.65 177.87C216.377 179.741 218.164 180.243 216.232 180.424C214.3 180.606 210.308 177.926 210.265 175.852C210.222 173.779 211.348 172.592 211.849 172.064C212.35 171.536 213.62 166.489 214.382 165.422C215.144 164.355 218.026 151.517 218.026 151.517C218.026 151.517 220.904 145.306 224.893 144.811C228.882 144.315 233.321 142.089 233.321 142.089" fill="black"/>
<path d="M228.427 106.868C228.427 106.868 225.251 96.966 223.077 100.121C220.904 103.276 226.575 108.457 226.575 108.457L228.427 106.868Z" fill="#A0616A"/>
<path d="M245.155 112.036L243.347 111.158C243.347 111.158 240.028 113.732 239.81 114.568C239.591 115.403 240.065 115.111 238.761 115.846C237.457 116.581 233.896 118.361 233.423 118.653C232.949 118.946 227.589 108.064 228.871 106.501C228.871 106.501 226.472 107.494 225.379 107.118C225.379 107.118 228.106 122.288 228.521 124.344C228.936 126.4 229.905 126.642 231.711 126.717C233.517 126.793 244.484 123.1 244.484 123.1L245.155 112.036Z" fill="#575A89"/>
<path d="M216.866 177.235C216.866 177.235 216.774 179.388 217.087 179.635C217.401 179.882 219.335 185.119 216.355 185.624C213.375 186.129 211.739 185.472 211.018 185.75C210.297 186.028 198.417 184.903 198.509 182.751C198.6 180.599 204.54 181.161 204.54 181.161C204.54 181.161 210.424 177.971 211.525 175.982C212.627 173.992 216.866 177.235 216.866 177.235Z" fill="#2F2E41"/>
<path opacity="0.1" d="M216.866 177.235C216.866 177.235 216.774 179.388 217.087 179.635C217.401 179.882 219.335 185.119 216.355 185.624C213.375 186.129 211.739 185.472 211.018 185.75C210.297 186.028 198.417 184.903 198.509 182.751C198.6 180.599 204.54 181.161 204.54 181.161C204.54 181.161 210.424 177.971 211.525 175.982C212.627 173.992 216.866 177.235 216.866 177.235Z" fill="black"/>
<path d="M222.996 188.572C222.996 188.572 221.189 197.605 219.863 197.513C218.538 197.421 209.181 192.196 208.03 191.161C206.552 189.832 206.61 187.484 208.307 187.977C210.004 188.47 214.803 188.028 215.618 187.033L217.716 184.476L222.996 188.572Z" fill="#2F2E41"/>
<path d="M241.519 138.384C242.014 138.919 257.073 153.578 257.073 153.578C257.073 153.578 256.643 160.079 247.664 161.633L232.698 164.222C232.698 164.222 230.614 176.439 227.475 180.55C224.336 184.661 225.902 184.745 224.751 186.717C223.6 188.689 225.414 189.04 223.498 189.382C221.583 189.725 217.432 187.384 217.257 185.32C217.083 183.256 218.132 181.978 218.598 181.41C219.064 180.841 220.011 175.702 220.703 174.574C221.395 173.446 223.457 160.402 223.457 160.402C223.457 160.402 225.933 153.967 229.881 153.141C233.828 152.314 238.113 149.723 238.113 149.723" fill="#2F2E41"/>
<path d="M255.381 106.627C259.324 106.627 262.521 102.958 262.521 98.4329C262.521 93.9077 259.324 90.2393 255.381 90.2393C251.437 90.2393 248.24 93.9077 248.24 98.4329C248.24 102.958 251.437 106.627 255.381 106.627Z" fill="#A0616A"/>
<path d="M259.124 103.548C259.124 103.548 258.053 108.553 259.684 111.119C261.315 113.684 248.775 112.463 248.775 112.463C248.775 112.463 252.169 104.341 250.917 102.452C249.664 100.563 259.124 103.548 259.124 103.548Z" fill="#A0616A"/>
<path d="M243.094 111.418C241.58 113.264 242.096 123.735 242.096 123.735L243.064 133.086C243.064 133.086 241.906 134.783 242.284 135.459C242.663 136.136 243.282 136.805 242.087 137.122C240.893 137.44 238.14 137.949 239.021 139.437C239.309 139.858 239.617 140.261 239.944 140.643C240.225 140.984 240.559 141.379 240.937 141.82C241.823 142.847 242.95 144.109 244.199 145.44C244.553 145.82 244.916 146.203 245.288 146.589C250.056 151.539 255.985 156.778 257.212 154.263C259.266 150.052 260.693 149.45 260.599 145.865C260.504 142.28 263.149 133.08 263.149 133.08C263.149 133.08 266.223 117.378 261.89 112.698L261.213 111.455C260.899 110.877 260.434 110.427 259.884 110.169C259.334 109.911 258.728 109.857 258.15 110.017C256.036 110.597 252.794 111.398 251.389 111.268C249.219 111.067 249.695 110.043 249.695 110.043C249.695 110.043 244.609 109.571 243.094 111.418Z" fill="#82B9E9"/>
<path d="M236.399 144.91C236.399 144.91 227.565 147.425 228.861 150.968C230.157 154.511 237.804 148.036 237.804 148.036L236.399 144.91Z" fill="#A0616A"/>
<path d="M259.332 101.431C259.157 101.186 259.331 100.829 259.484 100.565C260.303 99.1525 260.46 97.1421 259.558 95.7969C259.203 95.2958 258.758 94.8876 258.254 94.5995C257.546 94.1692 256.774 93.8972 255.978 93.7979C255.554 93.7908 255.135 93.6961 254.741 93.5184C254.492 93.3734 253.317 92.9012 253.065 92.7636C252.51 92.4612 251.739 92.5919 251.384 92.0172C251.044 91.4675 251.361 90.7145 251.691 90.1571C252.444 88.8871 254.346 87.8346 255.652 87.5013C256.643 87.2483 257.678 87.604 258.597 88.1006C259.656 88.7035 260.66 89.4247 261.596 90.2538C262.881 91.3463 264.147 92.557 264.919 94.1643C265.69 95.7716 265.876 97.8651 265.004 99.4036C264.823 99.7241 264.601 100.013 264.431 100.342C264.016 101.144 263.941 102.114 263.648 102.984C263.43 103.619 263.098 104.196 262.674 104.675C262.25 105.155 261.743 105.527 261.186 105.768C260.293 106.147 259.194 106.251 258.667 107.161L258.42 105.264C258.356 105.025 258.365 104.768 258.446 104.536C258.528 104.304 258.676 104.11 258.866 103.988L260.131 102.766C260.383 102.569 260.574 102.286 260.678 101.957C260.951 100.647 259.626 101.838 259.332 101.431Z" fill="#2F2E41"/>
<path opacity="0.1" d="M246.668 137.516L240.937 141.82C242.074 143.139 243.609 144.845 245.288 146.589C246.878 145.607 248.501 144.543 249.952 143.474C255.261 139.564 259.813 129.745 261.853 124.982C263.892 120.219 262.232 116.551 262.232 116.551C260.881 115.864 259.452 115.402 257.987 115.18C255.329 114.72 246.668 137.516 246.668 137.516Z" fill="black"/>
<path opacity="0.1" d="M245.911 136.162L239.944 140.643C240.225 140.984 240.559 141.379 240.937 141.82C241.823 142.847 242.95 144.109 244.199 145.44C245.894 144.402 247.643 143.263 249.195 142.12C254.504 138.21 259.056 128.392 261.096 123.629C263.135 118.866 257.648 120.574 257.648 120.574C257.648 120.574 260.495 119.095 257.837 118.635C255.179 118.175 245.911 136.162 245.911 136.162Z" fill="black"/>
<path d="M261.97 115.732C261.97 115.732 263.63 119.4 261.591 124.163C259.551 128.926 254.999 138.745 249.69 142.655C244.38 146.566 236.784 150.417 236.784 150.417C236.784 150.417 236.064 145.888 234.848 145.378L246.406 136.697C246.406 136.697 255.066 113.901 257.724 114.361C259.189 114.583 260.619 115.045 261.97 115.732Z" fill="#575A89"/>
<path d="M238.494 164.103V186.63H240.676V163.717L238.494 164.103Z" fill="#3F3D56"/>
<path d="M241.682 177.966C241.682 177.966 245.877 196.835 243.193 199.531C243.193 199.531 239.669 187.593 236.984 189.133L237.823 177.966H241.682Z" fill="#36334A"/>
<path d="M274.235 136.954L252.421 137.724C252.421 137.724 233.125 159.289 249.065 165.835C249.065 165.835 268.698 169.494 273.396 165.258C273.396 165.258 279.269 138.687 274.235 136.954ZM273.228 144.078L249.904 145.811C249.904 145.811 251.582 139.264 258.294 139.264C265.006 139.264 272.557 137.531 273.228 141.575C273.899 145.618 273.228 144.078 273.228 144.078V144.078Z" fill="#3F3D56"/>
<path d="M269.285 206.077C281.379 206.077 291.182 193.319 291.182 177.581C291.182 161.842 281.379 149.084 269.285 149.084C257.191 149.084 247.387 161.842 247.387 177.581C247.387 193.319 257.191 206.077 269.285 206.077Z" fill="#36334A"/>
<path d="M270.292 198.761C279.42 198.761 286.82 189.278 286.82 177.581C286.82 165.883 279.42 156.401 270.292 156.401C261.163 156.401 253.764 165.883 253.764 177.581C253.764 189.278 261.163 198.761 270.292 198.761Z" fill="#3F3D56"/>
<path d="M274.571 177.292C274.57 176.922 274.538 176.554 274.475 176.192L286.82 169.109L285.981 166.991L273.51 173.962C273.385 173.814 273.246 173.68 273.096 173.565L273.106 173.567L276.752 152.742L273.526 152.658L271.382 173.152L271.588 173.202C271.421 173.241 271.26 173.304 271.107 173.39L260.322 160.687L258.798 163.14L269.879 174.838C269.601 175.45 269.434 176.121 269.388 176.809L253.764 184.127L253.428 187.208L269.715 179.348C269.866 179.781 270.082 180.18 270.351 180.529L265.342 200.108H267.188L271.392 181.326C271.579 181.395 271.774 181.43 271.97 181.432C272.348 181.428 272.718 181.3 273.036 181.065L281.786 194.332L284.47 192.214L274.219 179.364C274.454 178.707 274.574 178.003 274.571 177.292Z" fill="#36334A"/>
<path d="M217.053 107.734C221.503 107.734 225.111 103.595 225.111 98.4883C225.111 93.3819 221.503 89.2424 217.053 89.2424C212.603 89.2424 208.996 93.3819 208.996 98.4883C208.996 103.595 212.603 107.734 217.053 107.734Z" fill="#E34B87"/>
<path d="M298.554 193.372C298.554 198.454 295.921 200.229 292.673 200.229C292.598 200.229 292.522 200.227 292.448 200.226C292.297 200.222 292.148 200.214 292.001 200.202C289.069 199.964 286.792 198.098 286.792 193.372C286.792 188.482 292.238 182.31 292.649 181.852L292.649 181.852C292.665 181.834 292.673 181.825 292.673 181.825C292.673 181.825 298.554 188.29 298.554 193.372Z" fill="#6C63FF"/>
<path d="M292.459 199.451L294.61 196.003L292.453 199.83L292.448 200.226C292.297 200.222 292.148 200.214 292.001 200.202L292.232 195.118L292.231 195.078L292.235 195.071L292.257 194.591L290.095 190.754L292.263 194.23L292.269 194.332L292.443 190.491L290.593 186.526L292.466 189.817L292.649 181.852L292.649 181.825V181.852L292.619 188.132L294.461 185.642L292.611 188.673L292.563 192.112L294.283 188.811L292.555 192.619L292.528 194.531L295.025 189.936L292.519 195.198L292.459 199.451Z" fill="#3F3D56"/>
</g>
<defs>
<clipPath id="clip0">
<rect width="303" height="223" fill="white"/>
</clipPath>
</defs>
</svg>
