<svg width="305" height="234" viewBox="0 0 305 234" fill="none" xmlns="http://www.w3.org/2000/svg">
<path d="M266.203 78.5749L258.488 97.8544L235.422 111.092C232.958 116.347 225.131 116.75 224.561 113.351C223.923 109.539 234.067 103.402 234.067 103.402L253.36 86.9288L255.048 72.7472L266.203 78.5749Z" fill="#A0616A"/>
<path d="M265.293 207.956L266.715 222.324L258.464 223.042L257.61 207.956H265.293Z" fill="#A0616A"/>
<path d="M264.154 220.168C264.892 219.184 265.573 218.133 266.191 217.025C267.373 214.959 268.422 225.556 268.422 225.556C268.422 225.556 269.561 229.867 269.276 232.022C268.992 234.177 262.447 234.177 261.309 233.818C260.171 233.459 254.48 233.818 254.48 233.818H245.944C238.546 229.508 245.944 226.634 245.944 226.634C248.22 226.275 255.903 217.295 255.903 217.295L257.61 213.344C258.748 212.985 259.886 218.373 259.886 218.373L264.154 220.168Z" fill="#2F2E41"/>
<path d="M286.633 208.135L288.056 222.503L279.804 223.222L278.95 208.135H286.633Z" fill="#A0616A"/>
<path d="M285.495 220.348C286.233 219.363 286.913 218.313 287.531 217.205C288.714 215.139 289.763 225.736 289.763 225.736C289.763 225.736 290.901 229.687 290.617 231.842C290.332 233.998 283.788 233.998 282.65 233.638C281.512 233.279 275.821 233.998 275.821 233.998H267.285C259.887 229.687 267.285 226.814 267.285 226.814C269.561 226.455 277.244 217.475 277.244 217.475L278.951 213.524C280.089 213.164 281.227 218.552 281.227 218.552L285.495 220.348Z" fill="#2F2E41"/>
<path d="M277.243 115.463C278.381 117.259 277.812 123.366 277.812 123.366C277.812 123.366 279.804 143.121 278.95 144.917C278.097 146.713 279.519 148.15 280.373 150.664C281.227 153.179 282.08 159.285 282.08 159.285C286.918 164.314 286.633 187.302 286.633 187.302L288.34 207.776C287.771 209.931 279.804 210.291 278.666 209.931C277.528 209.572 274.113 177.245 274.113 177.245L266.431 158.926C266.431 158.926 267 207.776 267 209.931C267 212.087 259.317 211.009 257.61 211.009C255.903 211.009 255.903 175.09 255.903 175.09L254.195 165.751L245.09 123.006V117.978L246.513 115.463C246.513 115.463 276.105 113.667 277.243 115.463Z" fill="#2F2E41"/>
<path d="M264.724 33.9263C269.595 33.9263 273.544 28.941 273.544 22.7913C273.544 16.6416 269.595 11.6563 264.724 11.6563C259.852 11.6563 255.903 16.6416 255.903 22.7913C255.903 28.941 259.852 33.9263 264.724 33.9263Z" fill="#A0616A"/>
<path d="M260.313 27.9996C262.101 33.0257 261.042 40.0457 257.468 47.7553L271.979 39.1347L269.703 36.6203L270.272 29.4364L260.313 27.9996Z" fill="#A0616A"/>
<path d="M260.313 39.494C258.413 40.9201 257.276 43.5405 256.623 46.2069C255.415 51.1435 254.688 56.2475 254.458 61.4061L253.769 76.8501L245.232 117.798C252.63 125.701 256.899 123.905 266.858 117.439C276.816 110.974 277.955 119.594 277.955 119.594C277.955 119.594 278.808 119.235 277.955 118.157C277.101 117.08 277.955 118.157 278.808 117.08C279.662 116.002 278.808 117.08 278.524 116.002C278.239 114.925 278.524 115.643 278.808 115.284C279.093 114.925 277.67 111.692 277.67 111.692L279.946 84.7523L282.792 46.6778C279.377 41.2899 269.703 36.6204 269.703 36.6204L260.882 44.5226C258.037 45.9594 260.313 40.2123 260.313 40.2123V39.494Z" fill="#E34B87"/>
<path d="M287.487 69.4866L288.625 91.0382L274.113 117.259C274.113 123.366 271.552 124.802 271.552 124.802C270.582 122.848 269.726 120.807 268.991 118.696C267.569 114.745 269.845 111.512 269.845 111.512L279.804 84.9319L275.536 71.6418L287.487 69.4866Z" fill="#A0616A"/>
<path d="M282.649 46.8573C287.487 49.0125 288.34 72.3601 288.34 72.3601C282.649 68.409 275.82 74.8745 275.82 74.8745C275.82 74.8745 274.398 68.7682 272.691 60.8659C272.175 58.6432 272.113 56.2918 272.511 54.0309C272.909 51.77 273.754 49.6729 274.967 47.9349C274.967 47.9349 277.812 44.7022 282.649 46.8573Z" fill="#6C63FF"/>
<path d="M272.833 26.2037C271.71 25.0697 270.178 27.131 270.178 27.131L269.28 16.9248C269.28 16.9248 263.665 17.7753 260.072 16.6413C256.478 15.5072 255.917 20.7521 255.917 20.7521C255.732 18.6341 255.694 16.4996 255.805 14.3732C256.029 11.8216 258.949 9.27004 264.114 7.569C269.28 5.86796 271.975 13.2392 271.975 13.2392C275.568 15.5072 273.956 27.3378 272.833 26.2037Z" fill="#2F2E41"/>
<path d="M14.3376 176.081C15.3074 180.941 23.5768 191.87 32.1096 202.133C18.9513 161.105 26.4494 116.203 26.4494 116.203C24.0062 133.837 57.4909 222.583 57.4909 222.583L49.8643 228.26L47.2879 232.836C21.461 217.862 14.3376 176.081 14.3376 176.081Z" fill="#E6E6E6"/>
<path d="M236.859 85.1024H128.99V111.987H236.859V85.1024Z" fill="#E6E6E6"/>
<path d="M236.859 42.621H128.99V69.506H236.859V42.621Z" fill="#E6E6E6"/>
<path d="M236.859 0H128.99V26.885H236.859V0Z" fill="#E6E6E6"/>
<path d="M131.29 23.982H234.56V2.90302H131.29V23.982Z" fill="white"/>
<path d="M131.29 66.6968H234.56V45.6178H131.29V66.6968Z" fill="white"/>
<path d="M131.29 109.084H234.56V88.0054H131.29V109.084Z" fill="white"/>
<path d="M140.33 21.2984C143.843 21.2984 146.692 17.703 146.692 13.2679C146.692 8.83271 143.843 5.2373 140.33 5.2373C136.817 5.2373 133.969 8.83271 133.969 13.2679C133.969 17.703 136.817 21.2984 140.33 21.2984Z" fill="#6C63FF"/>
<path d="M218.328 10.1255H155.542V11.8713H218.328V10.1255Z" fill="#6C63FF"/>
<path d="M218.328 14.6646H155.542V16.4103H218.328V14.6646Z" fill="#6C63FF"/>
<path d="M140.33 64.2687C143.843 64.2687 146.692 60.6733 146.692 56.2382C146.692 51.803 143.843 48.2076 140.33 48.2076C136.817 48.2076 133.969 51.803 133.969 56.2382C133.969 60.6733 136.817 64.2687 140.33 64.2687Z" fill="#CCCCCC"/>
<path d="M218.328 53.0958H155.542V54.8415H218.328V53.0958Z" fill="#CCCCCC"/>
<path d="M218.328 57.6348H155.542V59.3805H218.328V57.6348Z" fill="#CCCCCC"/>
<path d="M140.33 106.75C143.843 106.75 146.692 103.155 146.692 98.7193C146.692 94.2842 143.843 90.6888 140.33 90.6888C136.817 90.6888 133.969 94.2842 133.969 98.7193C133.969 103.155 136.817 106.75 140.33 106.75Z" fill="#CCCCCC"/>
<path d="M218.328 95.5771H155.542V97.3229H218.328V95.5771Z" fill="#CCCCCC"/>
<path d="M218.328 100.116H155.542V101.862H218.328V100.116Z" fill="#CCCCCC"/>
<path d="M49.4609 77.5521C49.4609 77.5521 47.9736 89.3537 54.1353 88.2808C54.1353 88.2808 78.5698 81.3071 79.8446 82.9164C81.1194 84.5257 89.045 85.0736 88.6316 78.2888C88.2167 71.4812 80.2695 75.4063 80.2695 75.4063C80.2695 75.4063 67.9461 77.552 65.3964 75.9427C62.8467 74.3334 55.6226 74.8698 55.6226 74.8698L49.4609 77.5521Z" fill="#A0616A"/>
<path d="M68.1073 116.038L64.7192 156.619C64.7192 156.619 63.6568 172.712 60.4697 176.199C60.4697 176.199 60.4697 181.295 59.4074 182.904L57.92 204.094C57.92 204.094 60.0448 211.872 59.8323 213.213C59.6198 214.554 60.6822 218.846 60.4697 219.382C60.2572 219.919 50.271 219.382 50.271 219.382L52.3957 176.199L58.9824 116.118L68.1073 116.038Z" fill="#2F2E41"/>
<path d="M49.4928 217.188C49.4928 217.188 45.0368 231.373 47.3617 233.085C49.6865 234.797 74.0975 233.574 74.0975 233.574C74.0975 233.574 78.166 230.395 73.5163 228.194C73.5163 228.194 69.6415 227.949 67.123 225.993C64.6044 224.036 61.6983 220.368 61.6983 220.368C61.6983 220.368 61.5046 214.987 59.9547 216.21C59.491 216.596 59.0963 217.1 58.796 217.689C58.4957 218.279 58.2965 218.941 58.211 219.634L49.4928 217.188Z" fill="#2F2E41"/>
<path d="M42.6223 215.265C42.6223 215.265 37.7354 230.822 40.285 232.699C42.8347 234.577 69.6064 233.236 69.6064 233.236C69.6064 233.236 74.0684 229.749 68.969 227.335C68.969 227.335 64.7195 227.067 61.9574 224.921C59.1952 222.775 56.0081 218.752 56.0081 218.752C56.0081 218.752 55.7957 212.851 54.0959 214.192C53.5873 214.615 53.1545 215.168 52.8251 215.814C52.4958 216.461 52.2773 217.188 52.1836 217.947L42.6223 215.265Z" fill="#2F2E41"/>
<path d="M62.382 115.487C62.382 115.487 60.0448 143.114 58.9825 149.015C58.3145 152.901 57.8883 156.847 57.7076 160.816C57.7076 160.816 57.4951 169.399 55.5829 171.813C55.0234 172.513 54.5838 173.35 54.2914 174.273C53.9989 175.195 53.86 176.184 53.8831 177.178C53.8831 177.178 51.9708 204.268 53.0332 207.487C54.0955 210.705 55.5378 214.887 54.4754 217.032C53.4131 219.178 41.3471 217.679 41.3471 216.07C41.3471 214.46 41.3471 213.119 40.7097 212.314C40.0723 211.51 40.7097 206.414 40.7097 206.414C40.7097 206.414 38.16 182.542 40.4972 175.568C42.8345 168.595 43.8968 149.551 43.8968 149.551C43.8968 149.551 42.197 127.825 40.0723 124.339C37.9475 120.852 40.4972 108.514 40.4972 108.514L62.382 115.487Z" fill="#2F2E41"/>
<path d="M56.4001 29.6948C56.6471 30.4051 57.2384 30.8006 57.7766 31.1749C60.8962 33.3444 63.5074 36.4899 66.0801 39.5991C65.4381 36.8529 65.5749 33.91 66.4669 31.2775C66.774 30.3795 67.1766 29.4143 66.957 28.4764C66.7404 27.8059 66.3639 27.2371 65.8796 26.849C64.8298 25.8242 63.7326 24.8792 62.5938 24.0191C61.7982 23.4183 60.1626 21.8188 59.2496 21.9928C59.2017 23.55 59.1767 24.9422 58.6365 26.3975C58.5084 26.7427 56.4946 29.9663 56.4001 29.6948Z" fill="#A0616A"/>
<path d="M67.269 33.144C72.0802 33.144 75.9805 28.2204 75.9805 22.147C75.9805 16.0735 72.0802 11.15 67.269 11.15C62.4579 11.15 58.5576 16.0735 58.5576 22.147C58.5576 28.2204 62.4579 33.144 67.269 33.144Z" fill="#A0616A"/>
<path d="M67.694 48.1642C67.694 48.1642 69.1813 38.7765 64.9319 35.5579C60.6824 32.3392 55.7955 28.5842 55.7955 28.5842C55.7955 28.5842 54.3082 28.3159 53.6708 32.3393C53.6708 32.3393 41.5598 35.2897 40.2849 49.7735C39.0101 64.2574 41.1348 85.4467 41.1348 85.4467C41.1348 85.4467 39.2226 103.954 36.8853 113.878C36.8853 113.878 34.9731 116.024 43.472 112.805C51.971 109.586 66.8441 121.925 66.8441 121.925C66.8441 121.925 68.3314 120.047 68.3314 118.706C68.3314 117.365 71.5185 76.5954 72.156 72.8404C72.7934 69.0853 69.6063 48.7006 67.694 48.1642Z" fill="#E6E6E6"/>
<path d="M65.2158 23.2798C65.7392 22.9136 66.3261 22.7163 66.9243 22.7054C67.5233 22.6941 68.1082 22.4741 68.6144 22.0696C69.4373 21.2722 69.4977 19.7309 70.0997 18.6644C70.9712 17.1202 72.7099 16.9343 74.2106 17.0116C75.1285 17.0589 76.117 17.1281 76.89 16.5014C77.6835 15.858 78.0431 14.6458 78.3107 13.5042C78.6271 12.1542 78.8318 10.5032 78.0477 9.50198C77.5033 8.80673 76.6439 8.6692 76.039 8.05861C75.7117 7.72814 71.3848 6.40116 67.3228 5.208C65.3005 4.61492 63.1763 4.97773 61.3516 6.22783C59.527 7.47793 58.1284 9.52866 57.4203 11.9923C56.4824 15.248 55.6785 18.3072 55.7615 18.968C56.1586 22.1304 58.3741 24.6441 58.5267 27.8402C58.6723 26.9576 58.989 26.1345 59.4486 25.4446C59.9083 24.7546 60.4964 24.2195 61.1602 23.8872C61.3266 23.7844 61.5156 23.7555 61.6967 23.805C61.9168 23.8938 62.0455 24.1714 62.1844 24.4046C62.5483 25.0154 63.6917 25.9421 64.3398 25.5088C64.9197 25.121 64.4868 23.904 65.2158 23.2798Z" fill="#3F3D56"/>
<path d="M69.1996 81.0968C69.0173 81.3225 68.913 81.63 68.9093 81.9523C68.9056 82.2746 69.0028 82.5858 69.1798 82.8181L75.3056 90.8216C75.3946 90.938 75.5012 91.0308 75.6189 91.0948C75.7367 91.1587 75.8634 91.1924 75.9916 91.194C76.1197 91.1955 76.2469 91.1649 76.3656 91.1039C76.4843 91.0428 76.5923 90.9526 76.6831 90.8384L95.3754 67.344C95.4775 67.2157 95.5556 67.0601 95.604 66.8888C95.6523 66.7174 95.6697 66.5346 95.6549 66.3536C95.6401 66.1727 95.5935 65.9982 95.5184 65.843C95.4433 65.6877 95.3416 65.5556 95.2209 65.4563L87.8707 59.4129C87.6869 59.2602 87.4671 59.1917 87.2481 59.2189C87.0291 59.2461 86.8241 59.3674 86.6674 59.5624L69.1996 81.0968Z" fill="#3F3D56"/>
<path d="M95.5033 65.8132C95.4662 65.8851 95.4233 65.9518 95.3752 66.0124L76.7268 89.9507C76.6359 90.0648 76.528 90.1551 76.4093 90.2161C76.2906 90.2772 76.1634 90.3078 76.0352 90.3062C75.907 90.3047 75.7804 90.2709 75.6626 90.207C75.5448 90.1431 75.4383 90.0502 75.3492 89.9338L69.0916 81.5974C69.049 81.5415 69.0107 81.4806 68.9773 81.4154C68.8728 81.6412 68.8358 81.9067 68.8729 82.1639C68.91 82.4212 69.0188 82.6532 69.1795 82.818L75.3053 90.8216C75.3943 90.9379 75.5009 91.0308 75.6186 91.0947C75.7364 91.1586 75.8631 91.1924 75.9913 91.1939C76.1194 91.1955 76.2466 91.1649 76.3653 91.1038C76.484 91.0428 76.592 90.9525 76.6828 90.8383L95.3752 67.344C95.5325 67.1461 95.6311 66.886 95.6544 66.6073C95.6777 66.3285 95.6244 66.0481 95.5033 65.8132H95.5033Z" fill="#6C63FF"/>
<path d="M93.7728 66.1027L93.0121 65.4905C93.0923 65.6707 93.1217 65.8799 93.0956 66.0839C93.0696 66.288 92.9895 66.4749 92.8686 66.6142C92.7476 66.7534 92.5929 66.8369 92.4295 66.851C92.2662 66.8651 92.1039 66.809 91.969 66.6917L87.0467 62.4197C86.9348 62.3228 86.8467 62.1881 86.7925 62.031C86.7383 61.874 86.7202 61.7008 86.7401 61.5314C86.7601 61.3619 86.8174 61.203 86.9054 61.0726C86.9935 60.9422 87.1088 60.8457 87.2382 60.7941L86.8463 60.4787C86.7954 60.4377 86.735 60.42 86.6751 60.4285C86.6151 60.437 86.5593 60.4712 86.5169 60.5254L69.9577 81.0681C69.933 81.0997 69.9136 81.1372 69.9005 81.1784C69.8874 81.2196 69.881 81.2636 69.8816 81.308C69.8823 81.3524 69.8899 81.3961 69.9041 81.4367C69.9183 81.4773 69.9388 81.5139 69.9644 81.5443L75.9783 88.9416C76.0282 89.001 76.0943 89.0335 76.1629 89.0323C76.2314 89.0311 76.2968 88.9963 76.3454 88.9352L93.8172 66.6192C93.8452 66.584 93.8665 66.5413 93.8797 66.4943C93.8929 66.4472 93.8975 66.3971 93.8932 66.3475C93.889 66.2979 93.8759 66.2502 93.8551 66.2078C93.8342 66.1655 93.8061 66.1295 93.7728 66.1027Z" fill="white"/>
<path d="M74.6606 76.5321L79.7406 82.5784L91.8231 67.5086L85.691 62.4703L74.6606 76.5321Z" fill="#E6E6E6"/>
<path d="M91.3536 71.2277C91.3871 71.268 91.4316 71.2905 91.4779 71.2905C91.5242 71.2905 91.5688 71.268 91.6023 71.2277L92.6589 69.8938C92.6918 69.8522 92.7103 69.7958 92.7103 69.7369C92.7103 69.6781 92.6918 69.6217 92.6589 69.58C92.6254 69.5397 92.5809 69.5172 92.5346 69.5172C92.4883 69.5172 92.4438 69.5397 92.4103 69.58L91.3536 70.9138C91.3207 70.9555 91.3022 71.0119 91.3022 71.0708C91.3022 71.1296 91.3207 71.186 91.3536 71.2277Z" fill="#3F3D56"/>
<path d="M89.5741 73.4747C89.6071 73.5162 89.6518 73.5395 89.6984 73.5395C89.745 73.5395 89.7897 73.5162 89.8227 73.4747L90.8794 72.1408C90.9122 72.0991 90.9305 72.0428 90.9305 71.984C90.9304 71.9253 90.9119 71.869 90.879 71.8274C90.8461 71.7859 90.8015 71.7625 90.7549 71.7625C90.7084 71.7624 90.6637 71.7855 90.6307 71.8269L89.5741 73.1608C89.5412 73.2025 89.5227 73.2589 89.5227 73.3177C89.5227 73.3766 89.5412 73.433 89.5741 73.4747Z" fill="#3F3D56"/>
<path d="M74.7784 83.2199C75.4338 83.2199 75.9651 82.5492 75.9651 81.7219C75.9651 80.8946 75.4338 80.2239 74.7784 80.2239C74.1231 80.2239 73.5918 80.8946 73.5918 81.7219C73.5918 82.5492 74.1231 83.2199 74.7784 83.2199Z" fill="#6C63FF"/>
<path d="M43.2595 73.3769C43.2595 73.3769 41.7722 85.1785 47.9339 84.1056C47.9339 84.1056 72.3683 77.1319 73.6432 78.7413C74.918 80.3506 82.8436 80.8984 82.4302 74.1137C82.0153 67.306 74.0681 71.2311 74.0681 71.2311C74.0681 71.2311 61.7447 73.3769 59.195 71.7675C56.6453 70.1582 49.4212 70.6947 49.4212 70.6947L43.2595 73.3769Z" fill="#A0616A"/>
<path d="M51.971 36.0943C51.971 36.0943 42.4097 37.4354 42.4097 54.8697V77.1319L54.0957 70.9628C54.0957 70.9628 58.9826 56.479 58.5577 52.4557C58.1327 48.4324 58.3452 36.6307 51.971 36.0943Z" fill="#E6E6E6"/>
</svg>
