<svg width="305" height="223" viewBox="0 0 305 223" fill="none" xmlns="http://www.w3.org/2000/svg">
<g clip-path="url(#clip0)">
<path opacity="0.1" d="M125.531 219.709C146.023 207.453 169.432 203.536 192.309 208.789C224.727 216.238 265.469 213.318 273.361 155.854C286.839 57.7129 230.358 31.8099 230.358 31.8099C230.358 31.8099 192.799 28.4103 170.589 15.4674C139.041 -2.92393 102.981 -5.26595 71.2731 10.2949C50.9963 20.2377 34.2984 34.0829 31.4454 53.0921C23.4686 106.255 36.5691 135.546 12.0619 152.9C-12.4453 170.254 8.49897 217.899 27.2868 216.249C46.0747 214.6 88.5295 196.504 105.073 217.465C110.949 224.899 118.384 223.985 125.531 219.709Z" fill="#6C63FF"/>
<path opacity="0.1" d="M222.759 43.165H138.206V49.4871H222.759V43.165Z" fill="#6C63FF"/>
<path opacity="0.1" d="M222.759 70.4647H138.206V76.7867H222.759V70.4647Z" fill="#6C63FF"/>
<path opacity="0.1" d="M222.759 98.9138H138.206V105.236H222.759V98.9138Z" fill="#6C63FF"/>
<path opacity="0.1" d="M150.968 26.7853H145.65V43.1651H150.968V26.7853Z" fill="#6C63FF"/>
<path opacity="0.1" d="M150.968 29.3715H145.65V30.521H150.968V29.3715Z" fill="#6C63FF"/>
<path opacity="0.1" d="M150.968 38.2798H145.65V39.4293H150.968V38.2798Z" fill="#6C63FF"/>
<path opacity="0.1" d="M158.945 26.7853H153.627V43.1651H158.945V26.7853Z" fill="#6C63FF"/>
<path opacity="0.1" d="M158.945 29.3715H153.627V30.521H158.945V29.3715Z" fill="#6C63FF"/>
<path opacity="0.1" d="M158.945 38.2798H153.627V39.4293H158.945V38.2798Z" fill="#6C63FF"/>
<path opacity="0.1" d="M166.922 26.7853H161.604V43.1651H166.922V26.7853Z" fill="#6C63FF"/>
<path opacity="0.1" d="M166.922 29.3715H161.604V30.521H166.922V29.3715Z" fill="#6C63FF"/>
<path opacity="0.1" d="M166.922 38.2798H161.604V39.4293H166.922V38.2798Z" fill="#6C63FF"/>
<path opacity="0.1" d="M174.899 26.7853H169.581V43.1651H174.899V26.7853Z" fill="#6C63FF"/>
<path opacity="0.1" d="M174.899 29.3715H169.581V30.521H174.899V29.3715Z" fill="#6C63FF"/>
<path opacity="0.1" d="M174.899 38.2798H169.581V39.4293H174.899V38.2798Z" fill="#6C63FF"/>
<path opacity="0.1" d="M182.875 26.7853H177.557V43.1651H182.875V26.7853Z" fill="#6C63FF"/>
<path opacity="0.1" d="M182.875 29.3715H177.557V30.521H182.875V29.3715Z" fill="#6C63FF"/>
<path opacity="0.1" d="M182.875 38.2798H177.557V39.4293H182.875V38.2798Z" fill="#6C63FF"/>
<path opacity="0.1" d="M190.852 26.7853H185.534V43.1651H190.852V26.7853Z" fill="#6C63FF"/>
<path opacity="0.1" d="M190.852 29.3715H185.534V30.521H190.852V29.3715Z" fill="#6C63FF"/>
<path opacity="0.1" d="M190.852 38.2798H185.534V39.4293H190.852V38.2798Z" fill="#6C63FF"/>
<path opacity="0.1" d="M198.829 26.7853H193.511V43.1651H198.829V26.7853Z" fill="#6C63FF"/>
<path opacity="0.1" d="M198.829 29.3715H193.511V30.521H198.829V29.3715Z" fill="#6C63FF"/>
<path opacity="0.1" d="M198.829 38.2798H193.511V39.4293H198.829V38.2798Z" fill="#6C63FF"/>
<path opacity="0.1" d="M195.68 82.1029L190.927 84.679L197.72 99.3212L202.474 96.7451L195.68 82.1029Z" fill="#6C63FF"/>
<path opacity="0.1" d="M196.755 84.4168L192.001 86.9929L192.478 88.0204L197.231 85.4443L196.755 84.4168Z" fill="#6C63FF"/>
<path opacity="0.1" d="M200.447 92.3809L195.693 94.957L196.17 95.9846L200.924 93.4085L200.447 92.3809Z" fill="#6C63FF"/>
<path opacity="0.1" d="M150.968 54.3723H145.65V70.752H150.968V54.3723Z" fill="#6C63FF"/>
<path opacity="0.1" d="M150.968 56.9586H145.65V58.108H150.968V56.9586Z" fill="#6C63FF"/>
<path opacity="0.1" d="M150.968 65.8669H145.65V67.0163H150.968V65.8669Z" fill="#6C63FF"/>
<path opacity="0.1" d="M158.945 54.3723H153.627V70.752H158.945V54.3723Z" fill="#6C63FF"/>
<path opacity="0.1" d="M158.945 56.9586H153.627V58.108H158.945V56.9586Z" fill="#6C63FF"/>
<path opacity="0.1" d="M158.945 65.8669H153.627V67.0163H158.945V65.8669Z" fill="#6C63FF"/>
<path opacity="0.1" d="M166.922 54.3723H161.604V70.752H166.922V54.3723Z" fill="#6C63FF"/>
<path opacity="0.1" d="M166.922 56.9586H161.604V58.108H166.922V56.9586Z" fill="#6C63FF"/>
<path opacity="0.1" d="M166.922 65.8669H161.604V67.0163H166.922V65.8669Z" fill="#6C63FF"/>
<path opacity="0.1" d="M200.158 54.3723H194.84V70.752H200.158V54.3723Z" fill="#6C63FF"/>
<path opacity="0.1" d="M200.158 56.9586H194.84V58.108H200.158V56.9586Z" fill="#6C63FF"/>
<path opacity="0.1" d="M200.158 65.8669H194.84V67.0163H200.158V65.8669Z" fill="#6C63FF"/>
<path opacity="0.1" d="M208.135 54.3723H202.817V70.752H208.135V54.3723Z" fill="#6C63FF"/>
<path opacity="0.1" d="M208.135 56.9586H202.817V58.108H208.135V56.9586Z" fill="#6C63FF"/>
<path opacity="0.1" d="M208.135 65.8669H202.817V67.0163H208.135V65.8669Z" fill="#6C63FF"/>
<path opacity="0.1" d="M216.112 54.3723H210.794V70.752H216.112V54.3723Z" fill="#6C63FF"/>
<path opacity="0.1" d="M216.112 56.9586H210.794V58.108H216.112V56.9586Z" fill="#6C63FF"/>
<path opacity="0.1" d="M216.112 65.8669H210.794V67.0163H216.112V65.8669Z" fill="#6C63FF"/>
<path opacity="0.1" d="M150.968 82.5341H145.65V98.9138H150.968V82.5341Z" fill="#6C63FF"/>
<path opacity="0.1" d="M150.968 85.1204H145.65V86.2698H150.968V85.1204Z" fill="#6C63FF"/>
<path opacity="0.1" d="M150.968 94.0286H145.65V95.1781H150.968V94.0286Z" fill="#6C63FF"/>
<path opacity="0.1" d="M158.945 82.5341H153.627V98.9138H158.945V82.5341Z" fill="#6C63FF"/>
<path opacity="0.1" d="M158.945 85.1204H153.627V86.2698H158.945V85.1204Z" fill="#6C63FF"/>
<path opacity="0.1" d="M158.945 94.0286H153.627V95.1781H158.945V94.0286Z" fill="#6C63FF"/>
<path opacity="0.1" d="M166.922 82.5341H161.604V98.9138H166.922V82.5341Z" fill="#6C63FF"/>
<path opacity="0.1" d="M166.922 85.1204H161.604V86.2698H166.922V85.1204Z" fill="#6C63FF"/>
<path opacity="0.1" d="M166.922 94.0286H161.604V95.1781H166.922V94.0286Z" fill="#6C63FF"/>
<path opacity="0.1" d="M174.899 82.5341H169.581V98.9138H174.899V82.5341Z" fill="#6C63FF"/>
<path opacity="0.1" d="M174.899 85.1204H169.581V86.2698H174.899V85.1204Z" fill="#6C63FF"/>
<path opacity="0.1" d="M174.899 94.0286H169.581V95.1781H174.899V94.0286Z" fill="#6C63FF"/>
<path opacity="0.1" d="M182.875 82.5341H177.557V98.9138H182.875V82.5341Z" fill="#6C63FF"/>
<path opacity="0.1" d="M182.875 85.1204H177.557V86.2698H182.875V85.1204Z" fill="#6C63FF"/>
<path opacity="0.1" d="M182.875 94.0286H177.557V95.1781H182.875V94.0286Z" fill="#6C63FF"/>
<path opacity="0.1" d="M190.852 82.5341H185.534V98.9138H190.852V82.5341Z" fill="#6C63FF"/>
<path opacity="0.1" d="M190.852 85.1204H185.534V86.2698H190.852V85.1204Z" fill="#6C63FF"/>
<path opacity="0.1" d="M190.852 94.0286H185.534V95.1781H190.852V94.0286Z" fill="#6C63FF"/>
<path opacity="0.1" d="M206.805 28.2451V43.165H201.488V27.1502C203.267 27.4893 205.04 27.8543 206.805 28.2451Z" fill="#6C63FF"/>
<path opacity="0.1" d="M206.805 29.3715H201.488V30.521H206.805V29.3715Z" fill="#6C63FF"/>
<path opacity="0.1" d="M206.805 38.2798H201.488V39.4293H206.805V38.2798Z" fill="#6C63FF"/>
<path opacity="0.1" d="M214.782 30.2394V43.1708H209.464V28.86C210.156 29.0238 210.844 29.1963 211.533 29.3716C212.621 29.6474 213.704 29.9367 214.782 30.2394Z" fill="#6C63FF"/>
<path opacity="0.1" d="M214.782 30.2394V30.5268H209.464V29.3773H211.533C212.621 29.6494 213.704 29.9367 214.782 30.2394Z" fill="#6C63FF"/>
<path opacity="0.1" d="M214.782 38.2798H209.464V39.4293H214.782V38.2798Z" fill="#6C63FF"/>
<g opacity="0.1">
<path opacity="0.1" d="M177.661 64.7979C177.661 64.7979 176.05 64.2059 175.268 65.7433C175.064 66.1595 174.96 66.6247 174.966 67.0958C174.972 67.567 175.088 68.0289 175.303 68.4388C175.813 69.4331 176.863 70.7377 178.852 70.6113C180.541 70.5136 181.102 69.1227 181.245 67.8267C181.3 67.3419 181.24 66.85 181.07 66.3973C180.901 65.9446 180.627 65.5462 180.275 65.2396C179.923 64.933 179.505 64.7284 179.06 64.6451C178.614 64.5618 178.157 64.6025 177.73 64.7634L177.661 64.7979Z" fill="#6C63FF"/>
<path opacity="0.1" d="M175.654 68.5796C175.439 68.1697 175.323 67.7078 175.317 67.2366C175.311 66.7655 175.415 66.3003 175.62 65.8841C176.396 64.3496 178.013 64.9387 178.013 64.9387L178.095 64.9071C178.71 64.6665 179.386 64.6829 179.991 64.953C179.657 64.7382 179.283 64.6062 178.897 64.5665C178.51 64.5267 178.12 64.5802 177.755 64.7231L177.672 64.7548C177.672 64.7548 176.061 64.1628 175.279 65.7002C175.075 66.1164 174.971 66.5816 174.977 67.0527C174.983 67.5239 175.099 67.9858 175.314 68.3957C175.713 69.219 176.355 69.8751 177.138 70.2607C176.51 69.8576 175.997 69.2761 175.654 68.5796Z" fill="#6C63FF"/>
<path opacity="0.2" d="M176.829 65.5364C176.829 65.5364 177.427 66.0463 178.879 65.5364H176.829Z" fill="#6C63FF"/>
<path opacity="0.1" d="M176.698 61.8442C176.698 61.8442 177.722 64.8443 177.637 65.6288L178.448 65.5369C178.448 65.5369 177.081 62.9075 177.424 61.8442H176.698Z" fill="#6C63FF"/>
<path opacity="0.2" d="M176.698 61.8442C176.698 61.8442 177.722 64.8443 177.637 65.6288L178.448 65.5369C178.448 65.5369 177.081 62.9075 177.424 61.8442H176.698Z" fill="#6C63FF"/>
<path opacity="0.1" d="M180.884 62.0966C180.884 62.0966 179.27 61.2058 178.549 61.9415C177.828 62.6771 177.717 64.5593 177.717 64.5593C177.717 64.5593 180.346 64.9444 180.884 62.0966Z" fill="#6C63FF"/>
<path opacity="0.1" d="M180.884 62.0966C180.884 62.0966 179.27 61.2058 178.549 61.9415C177.828 62.6771 177.717 64.5593 177.717 64.5593C177.717 64.5593 180.346 64.9444 180.884 62.0966Z" fill="#6C63FF"/>
<path opacity="0.1" d="M177.714 64.5593C177.714 64.5593 178.137 62.3754 180.881 62.0938L177.714 64.5593Z" fill="#6C63FF"/>
</g>
<g opacity="0.1">
<path opacity="0.1" d="M211.695 93.247C211.695 93.247 210.084 92.655 209.302 94.1924C209.098 94.6086 208.994 95.0738 209 95.5449C209.006 96.0161 209.122 96.478 209.337 96.8879C209.847 97.8822 210.897 99.1868 212.886 99.0604C214.575 98.9627 215.136 97.5718 215.279 96.2758C215.334 95.791 215.274 95.2991 215.104 94.8464C214.935 94.3937 214.661 93.9953 214.309 93.6887C213.957 93.3821 213.539 93.1775 213.094 93.0942C212.649 93.0109 212.191 93.0516 211.764 93.2125L211.695 93.247Z" fill="#6C63FF"/>
<path opacity="0.1" d="M209.688 97.0287C209.473 96.6188 209.357 96.1569 209.351 95.6857C209.345 95.2146 209.449 94.7494 209.654 94.3332C210.43 92.7987 212.047 93.3878 212.047 93.3878L212.129 93.3562C212.744 93.1156 213.42 93.132 214.025 93.4021C213.691 93.1873 213.318 93.0553 212.931 93.0156C212.544 92.9758 212.154 93.0293 211.789 93.1722L211.706 93.2038C211.706 93.2038 210.095 92.6119 209.313 94.1493C209.109 94.5655 209.005 95.0307 209.011 95.5018C209.017 95.973 209.133 96.4349 209.348 96.8448C209.747 97.668 210.389 98.3242 211.172 98.7098C210.544 98.3067 210.031 97.7252 209.688 97.0287Z" fill="#6C63FF"/>
<path opacity="0.2" d="M210.863 93.9855C210.863 93.9855 211.461 94.4954 212.913 93.9855H210.863Z" fill="#6C63FF"/>
<path opacity="0.1" d="M210.733 90.2933C210.733 90.2933 211.756 93.2934 211.671 94.0779L212.482 93.986C212.482 93.986 211.116 91.3566 211.459 90.2933H210.733Z" fill="#6C63FF"/>
<path opacity="0.2" d="M210.733 90.2933C210.733 90.2933 211.756 93.2934 211.671 94.0779L212.482 93.986C212.482 93.986 211.116 91.3566 211.459 90.2933H210.733Z" fill="#6C63FF"/>
<path opacity="0.1" d="M214.918 90.5457C214.918 90.5457 213.304 89.6549 212.583 90.3906C211.863 91.1262 211.751 93.0084 211.751 93.0084C211.751 93.0084 214.381 93.3935 214.918 90.5457Z" fill="#6C63FF"/>
<path opacity="0.1" d="M214.918 90.5457C214.918 90.5457 213.304 89.6549 212.583 90.3906C211.863 91.1262 211.751 93.0084 211.751 93.0084C211.751 93.0084 214.381 93.3935 214.918 90.5457Z" fill="#6C63FF"/>
<path opacity="0.1" d="M211.748 93.0084C211.748 93.0084 212.171 90.8245 214.915 90.5428L211.748 93.0084Z" fill="#6C63FF"/>
</g>
<path opacity="0.1" d="M265.501 181.051C273.431 181.051 279.859 178.581 279.859 175.534C279.859 172.487 273.431 170.016 265.501 170.016C257.571 170.016 251.143 172.487 251.143 175.534C251.143 178.581 257.571 181.051 265.501 181.051Z" fill="black"/>
<path d="M265.511 175.58C265.511 175.58 273.704 145.524 263.975 123.4C259.893 114.115 258.537 103.693 260.422 93.6177C261.325 88.8386 262.63 84.1589 264.323 79.6374" stroke="#535461" stroke-width="2" stroke-miterlimit="10"/>
<path d="M258.271 65.6542C258.271 69.3383 264.443 80.0225 264.443 80.0225C264.443 80.0225 270.614 69.3411 270.614 65.6542C270.614 63.8853 269.964 62.1888 268.806 60.938C267.649 59.6872 266.079 58.9845 264.443 58.9845C262.806 58.9845 261.236 59.6872 260.079 60.938C258.921 62.1888 258.271 63.8853 258.271 65.6542Z" fill="#6C63FF"/>
<path d="M248.069 86.0571C249.93 89.1492 260.473 94.4913 260.473 94.4913C260.473 94.4913 260.281 81.899 258.428 78.8069C257.988 78.071 257.417 77.4361 256.75 76.9385C256.082 76.4408 255.331 76.0901 254.538 75.9063C253.745 75.7226 252.926 75.7095 252.128 75.8677C251.331 76.0259 250.57 76.3524 249.889 76.8284C249.208 77.3045 248.621 77.9208 248.16 78.6422C247.7 79.3637 247.375 80.176 247.205 81.033C247.035 81.89 247.023 82.7747 247.169 83.6368C247.316 84.4988 247.618 85.3213 248.058 86.0571H248.069Z" fill="#6C63FF"/>
<path d="M248.508 120.926C251.552 122.584 263.156 121.437 263.156 121.437C263.156 121.437 257.109 110.673 254.065 109.015C253.341 108.62 252.553 108.384 251.744 108.319C250.936 108.254 250.124 108.361 249.354 108.636C248.585 108.91 247.872 109.345 247.258 109.917C246.644 110.488 246.141 111.185 245.776 111.967C245.411 112.749 245.192 113.602 245.132 114.475C245.072 115.349 245.171 116.226 245.425 117.058C245.679 117.89 246.081 118.66 246.61 119.323C247.139 119.987 247.784 120.532 248.508 120.926Z" fill="#6C63FF"/>
<path d="M254.357 147.226C257.099 149.415 268.715 150.407 268.715 150.407C268.715 150.407 264.44 138.691 261.699 136.501C261.047 135.98 260.307 135.603 259.52 135.391C258.734 135.179 257.917 135.137 257.115 135.267C256.314 135.396 255.543 135.695 254.849 136.146C254.154 136.597 253.548 137.192 253.066 137.896C252.584 138.6 252.235 139.4 252.039 140.25C251.843 141.1 251.804 141.984 251.924 142.85C252.044 143.716 252.321 144.548 252.738 145.299C253.156 146.05 253.706 146.705 254.357 147.226Z" fill="#6C63FF"/>
<path d="M273.432 95.204C270.989 97.7701 259.606 100.428 259.606 100.428C259.606 100.428 262.395 88.2009 264.839 85.6347C265.419 85.0196 266.106 84.5344 266.861 84.2071C267.615 83.8798 268.422 83.7168 269.235 83.7275C270.048 83.7383 270.851 83.9224 271.598 84.2695C272.344 84.6166 273.02 85.1198 273.587 85.75C274.153 86.3803 274.599 87.1253 274.898 87.9423C275.197 88.7592 275.344 89.632 275.33 90.5105C275.316 91.389 275.142 92.2559 274.817 93.0613C274.492 93.8668 274.024 94.5949 273.438 95.204H273.432Z" fill="#6C63FF"/>
<path d="M279.883 126.055C276.838 127.714 265.235 126.567 265.235 126.567C265.235 126.567 271.281 115.802 274.326 114.144C275.049 113.75 275.838 113.513 276.646 113.448C277.454 113.383 278.266 113.491 279.036 113.765C279.806 114.039 280.518 114.475 281.132 115.046C281.746 115.618 282.25 116.315 282.615 117.097C282.98 117.879 283.199 118.731 283.259 119.605C283.319 120.478 283.219 121.356 282.966 122.188C282.712 123.02 282.309 123.789 281.78 124.453C281.251 125.117 280.606 125.661 279.883 126.055Z" fill="#6C63FF"/>
<path d="M282.366 156.973C279.625 159.163 268.008 160.154 268.008 160.154C268.008 160.154 272.284 148.438 275.025 146.249C275.676 145.716 276.418 145.328 277.208 145.108C277.999 144.887 278.822 144.839 279.63 144.964C280.438 145.09 281.214 145.388 281.915 145.84C282.616 146.293 283.227 146.891 283.712 147.6C284.197 148.309 284.548 149.116 284.743 149.972C284.938 150.829 284.974 151.719 284.848 152.591C284.723 153.463 284.439 154.299 284.012 155.051C283.586 155.803 283.025 156.456 282.364 156.973H282.366Z" fill="#6C63FF"/>
<path opacity="0.1" d="M229.765 165.189C237.695 165.189 244.123 162.719 244.123 159.671C244.123 156.624 237.695 154.154 229.765 154.154C221.835 154.154 215.407 156.624 215.407 159.671C215.407 162.719 221.835 165.189 229.765 165.189Z" fill="black"/>
<path d="M229.183 160.456C229.183 160.456 233.02 146.375 228.462 136.01C226.525 131.675 225.941 126.779 226.798 122.055C227.221 119.817 227.834 117.624 228.627 115.506" stroke="#535461" stroke-width="2" stroke-miterlimit="10"/>
<path d="M225.79 108.954C225.79 110.679 228.68 115.684 228.68 115.684C228.68 115.684 231.571 110.679 231.571 108.954C231.571 108.125 231.266 107.331 230.724 106.745C230.181 106.158 229.446 105.829 228.679 105.829C227.912 105.829 227.177 106.158 226.634 106.745C226.092 107.331 225.787 108.125 225.787 108.954H225.79Z" fill="#6C63FF"/>
<path d="M221.012 118.512C221.879 119.949 226.824 122.463 226.824 122.463C226.824 122.463 226.734 116.564 225.867 115.115C225.661 114.771 225.394 114.474 225.081 114.241C224.768 114.008 224.416 113.844 224.045 113.758C223.674 113.672 223.29 113.666 222.917 113.74C222.543 113.814 222.187 113.967 221.868 114.19C221.549 114.413 221.274 114.702 221.059 115.04C220.843 115.378 220.691 115.758 220.612 116.159C220.532 116.561 220.527 116.975 220.595 117.379C220.664 117.782 220.806 118.168 221.012 118.512Z" fill="#6C63FF"/>
<path d="M221.219 134.849C222.645 135.625 228.082 135.09 228.082 135.09C228.082 135.09 225.25 130.047 223.828 129.268C223.489 129.083 223.119 128.973 222.741 128.942C222.362 128.912 221.982 128.962 221.621 129.091C220.893 129.35 220.29 129.912 219.945 130.652C219.599 131.392 219.54 132.25 219.78 133.037C220.02 133.824 220.54 134.476 221.225 134.849H221.219Z" fill="#6C63FF"/>
<path d="M223.953 147.171C225.237 148.197 230.68 148.662 230.68 148.662C230.68 148.662 228.675 143.174 227.393 142.148C227.088 141.904 226.741 141.727 226.373 141.628C226.004 141.529 225.621 141.509 225.246 141.57C224.87 141.631 224.509 141.771 224.184 141.983C223.859 142.194 223.575 142.473 223.349 142.803C223.123 143.133 222.96 143.508 222.868 143.906C222.777 144.304 222.758 144.718 222.815 145.124C222.871 145.53 223.001 145.92 223.196 146.272C223.392 146.623 223.65 146.93 223.955 147.174L223.953 147.171Z" fill="#6C63FF"/>
<path d="M232.895 122.8C231.749 124.001 226.412 125.248 226.412 125.248C226.412 125.248 227.72 119.518 228.864 118.317C229.414 117.739 230.153 117.422 230.92 117.434C231.687 117.446 232.418 117.787 232.952 118.381C233.486 118.976 233.78 119.775 233.768 120.604C233.757 121.432 233.442 122.222 232.892 122.8H232.895Z" fill="#6C63FF"/>
<path d="M235.923 137.254C234.498 138.03 229.061 137.495 229.061 137.495C229.061 137.495 231.892 132.452 233.315 131.673C234 131.3 234.793 131.237 235.522 131.496C236.25 131.756 236.853 132.317 237.198 133.057C237.543 133.797 237.602 134.655 237.362 135.442C237.122 136.229 236.603 136.881 235.918 137.254H235.923Z" fill="#6C63FF"/>
<path d="M237.074 151.729C235.79 152.755 230.347 153.22 230.347 153.22C230.347 153.22 232.352 147.731 233.634 146.705C233.939 146.461 234.286 146.285 234.654 146.185C235.022 146.086 235.405 146.066 235.781 146.126C236.156 146.187 236.517 146.327 236.843 146.538C237.168 146.749 237.452 147.028 237.678 147.358C237.904 147.688 238.068 148.062 238.159 148.46C238.251 148.859 238.27 149.272 238.214 149.678C238.158 150.084 238.028 150.474 237.833 150.826C237.637 151.178 237.38 151.484 237.074 151.729Z" fill="#6C63FF"/>
<path d="M303.606 188.468L221.275 141.269H204.011L208.478 101.083C208.576 100.204 208.51 99.312 208.285 98.4601C208.06 97.6082 207.68 96.8133 207.167 96.1221C206.654 95.4309 206.019 94.8572 205.299 94.4346C204.578 94.012 203.787 93.7489 202.971 93.6608L202.509 93.6809H202.464L139.657 94.7126C138.05 94.5897 136.454 95.0901 135.157 96.1239C133.86 97.1577 132.946 98.6573 132.579 100.354L129.655 123.446L129.232 122.748L129.027 122.412C130.572 121.325 127.525 114.868 124.943 110.055L124.709 109.618C126.347 108.88 128.166 108.181 128.166 108.181L124.137 105.463C124.137 105.463 120.431 99.6639 116.485 94.9597C119.144 76.9649 113.528 56.1655 113.462 55.8781L113.313 55.9212C114.093 54.557 114.503 52.9842 114.499 51.3809C114.499 50.1595 114.26 48.952 113.796 47.8383C113.332 46.7247 112.654 45.7302 111.808 44.9209C111.651 43.3806 111.425 41.7944 111.101 40.1248C111.042 39.8374 110.981 39.5184 110.915 39.2138C110.612 37.777 110.306 36.3402 109.904 34.9321C109.626 33.9282 109.28 32.9476 108.87 31.9981C106.772 27.2077 102.457 23.7823 97.7291 22.5754C95.2962 21.9547 92.8022 22.9174 90.5315 22.4576C89.3881 22.2306 88.3645 21.0438 87.2504 20.5639C85.8385 19.9546 84.3096 19.6701 82.8153 19.4144C80.9541 19.0782 79.0211 18.7448 77.1678 19.1816C74.1101 19.9 71.7782 22.5783 70.0632 25.406C68.3482 28.2336 67.0161 31.3659 64.8969 33.8545C63.4797 35.5212 61.7355 36.8603 60.4725 38.665C58.6113 41.3202 57.9652 44.6996 57.3669 47.9813C56.6277 52.0188 55.8886 56.1138 55.9045 60.2144C55.9045 61.1656 55.9178 62.1197 55.9949 63.0737C56.189 65.5221 56.7048 67.9359 56.8272 70.3872C56.8272 70.6515 56.8458 70.9159 56.8511 71.1803C56.8245 75.666 55.5987 80.0886 54.381 84.3991C53.9928 85.7698 53.5992 87.152 53.1392 88.5026C50.693 88.7268 48.3532 89.2555 46.5691 90.2958C40.0494 94.066 35.0321 102.474 35.0321 102.474L25.4946 111.957C25.4946 111.957 29.2596 113.857 31.0171 117.113C31.0801 117.227 31.1521 117.336 31.2325 117.437L31.0942 117.782L25.4946 131.76C25.4946 131.76 29.0096 134.472 34.269 133.929C35.1238 133.814 35.9913 133.882 36.8215 134.13C36.8215 134.303 36.8056 134.478 36.8002 134.662C36.4785 142.659 36.3083 160.183 40.1372 172.019L31.4851 182.939L14.2022 188.471L13.4497 202.839H304.108L303.606 188.468ZM54.3357 134.889C55.077 135.052 55.7999 135.301 56.4921 135.63V145.619C56.0348 142.09 55.3993 138.475 54.5139 135.47C54.4581 135.274 54.4075 135.082 54.3357 134.889ZM104.241 154.111C104.241 154.076 104.241 154.042 104.241 154.007C104.251 153.659 104.295 153.312 104.371 152.973C104.479 152.447 104.719 151.964 105.065 151.576C105.706 150.884 106.368 150.139 107.03 149.332C107.438 150.469 108.026 151.52 108.769 152.438C109.62 153.464 111.521 154.387 114.19 155.22C110.894 154.667 107.573 154.297 104.241 154.111ZM125.94 152.732L117.251 155.51C113.143 154.516 110.221 153.378 109.139 152.062C108.381 151.119 107.794 150.031 107.405 148.855C110.505 144.97 113.52 139.743 114.212 132.604C114.23 132.418 114.244 132.225 114.26 132.03C115.202 131.451 116.092 130.777 116.918 130.018L117.075 130.415C119.412 136.156 122.716 141.377 126.82 145.812L125.94 152.732ZM113.06 56.3408C113.744 59.0046 118.378 77.8644 116.054 94.4482C114.608 92.7643 113.148 91.2585 111.84 90.2671C111.53 90.0353 111.206 89.8269 110.869 89.6435C110.58 86.6031 110.447 83.4508 110.425 80.3271C110.452 76.4592 110.665 72.6229 110.957 68.9733C111.274 65.1054 111.646 61.4156 111.877 57.7862C112.32 57.3534 112.717 56.8686 113.06 56.3408Z" fill="url(#paint0_linear)"/>
<path d="M108.819 60.9846H106.551V44.03H108.819C110.551 44.03 112.212 44.7736 113.437 46.0972C114.662 47.4208 115.35 49.2159 115.35 51.0877V53.9096C115.352 54.8379 115.184 55.7575 114.857 56.6158C114.53 57.4741 114.049 58.2541 113.443 58.9113C112.836 59.5685 112.115 60.0899 111.322 60.4457C110.529 60.8014 109.678 60.9846 108.819 60.9846Z" fill="#DFE6F5"/>
<path d="M106.23 60.9846H106.873C107.758 60.9846 108.476 60.2088 108.476 59.2517V45.7772C108.476 44.8202 107.758 44.0444 106.873 44.0444H106.23C105.344 44.0444 104.626 44.8202 104.626 45.7772V59.2517C104.626 60.2088 105.344 60.9846 106.23 60.9846Z" fill="#535461"/>
<g opacity="0.1">
<path opacity="0.1" d="M108.819 60.9846H106.551V44.03H108.819C110.551 44.03 112.212 44.7736 113.437 46.0972C114.662 47.4208 115.35 49.2159 115.35 51.0877V53.9096C115.352 54.8379 115.184 55.7575 114.857 56.6158C114.53 57.4741 114.049 58.2541 113.443 58.9113C112.836 59.5685 112.115 60.0899 111.322 60.4457C110.529 60.8014 109.678 60.9846 108.819 60.9846Z" fill="black"/>
<path opacity="0.1" d="M106.23 60.9846H106.873C107.758 60.9846 108.476 60.2088 108.476 59.2517V45.7772C108.476 44.8202 107.758 44.0444 106.873 44.0444H106.23C105.344 44.0444 104.626 44.8202 104.626 45.7772V59.2517C104.626 60.2088 105.344 60.9846 106.23 60.9846Z" fill="black"/>
</g>
<path d="M109.899 53.0044H70.2573V97.4454H109.899V53.0044Z" fill="#865A61"/>
<path opacity="0.1" d="M109.899 46.8835H70.2573V91.3245H109.899V46.8835Z" fill="black"/>
<path d="M108.545 89.8618L106.152 108.655L105.025 117.489L104.61 120.733L101.135 128.055L94.7536 141.493L82.4428 143.09L60.7887 110.087C60.7887 110.087 49.4511 86.6692 66.6888 88.7957C76.3539 89.9911 78.6539 80.6403 78.8267 72.1946C78.8702 67.9424 78.5138 63.6963 77.7632 59.5219L94.9982 68.571C94.5976 70.5883 94.2963 72.4418 94.0942 74.1315C93.254 81.0455 93.9506 85.3559 95.4077 87.9681C99.287 94.9252 108.545 89.8618 108.545 89.8618Z" fill="#FDC2CC"/>
<path opacity="0.1" d="M95.0035 68.5738C94.6029 70.5911 94.3016 72.4447 94.0995 74.1344C92.311 74.6845 90.4604 74.963 88.6009 74.962C85.177 74.9681 81.8098 74.0167 78.8267 72.2004C78.8702 67.9481 78.5138 63.702 77.7632 59.5276L95.0035 68.5738Z" fill="black"/>
<path d="M88.601 74.4275C99.616 74.4275 108.545 64.7769 108.545 52.8723C108.545 40.9676 99.616 31.317 88.601 31.317C77.5859 31.317 68.6565 40.9676 68.6565 52.8723C68.6565 64.7769 77.5859 74.4275 88.601 74.4275Z" fill="#FDC2CC"/>
<path d="M115.195 175.551L33.1997 182.477L46.4943 165.712C60.7593 156.292 60.637 143.343 58.7412 135.311C58.1529 132.737 57.2638 130.255 56.0956 127.923L84.4369 128.067H84.6762L87.0054 133.788L87.1118 134.047L88.8454 138.303L94.7535 126.86L96.8088 123.28L97.9574 121.268C97.9574 121.268 114.948 117.009 115.192 127.92C115.222 129.173 115.177 130.427 115.057 131.673C114.211 140.455 109.766 146.295 106.083 150.275C101.898 154.795 115.195 175.551 115.195 175.551Z" fill="#EC7580"/>
<path d="M105.403 152.171C104.802 154.757 106.317 159.203 108.327 163.568C98.6888 164.689 88.1196 164.105 88.1196 164.105L77.2739 167.301L46.7443 176.882C45.4149 175.022 44.3513 172.686 43.4712 170.054L46.497 166.238C56.0186 159.95 59.1295 152.091 59.5842 145.171C59.7651 142.03 59.4815 138.879 58.744 135.834C58.156 133.263 57.2679 130.782 56.101 128.452L84.4423 128.596H84.6816L87.0108 134.317L87.1172 134.576L88.8508 138.832L94.7589 127.389L96.8089 123.808L97.9576 121.797C97.9576 121.797 114.948 117.532 115.195 128.452C115.225 129.705 115.179 130.958 115.06 132.205C114.214 140.987 109.768 146.826 106.086 150.806C105.747 151.185 105.51 151.657 105.403 152.171Z" fill="#EC7580"/>
<path d="M169.365 165.97C168.873 172.356 154.592 163.841 154.592 163.841C154.592 163.841 150.16 162.243 135.14 151.867C127.514 146.599 121.501 139.012 117.857 130.058C117.282 128.675 116.802 127.247 116.418 125.788L126.767 117.532L129.785 122.518L139.817 139.085L154.59 149.717C154.59 149.717 169.857 159.585 169.365 165.97Z" fill="#FDC2CC"/>
<path d="M300.848 186.994H16.9487L45.3698 177.905L116.421 155.18L161.729 140.688H220.087L300.848 186.994Z" fill="#CBCDDA"/>
<path d="M16.9486 186.994L16.2095 201.098H301.34L300.848 186.994H16.9486Z" fill="#CBCDDA"/>
<path opacity="0.1" d="M16.9486 186.994L16.2095 201.098H301.34L300.848 186.994H16.9486Z" fill="black"/>
<path d="M91.3794 167.048L151.388 160.384L152.128 173.157L124.698 176.097C122.806 176.263 120.902 176.103 119.056 175.623L91.3289 167.881C91.2405 167.856 91.1629 167.799 91.1094 167.719C91.056 167.639 91.03 167.541 91.036 167.442C91.042 167.344 91.0795 167.25 91.1422 167.178C91.2048 167.106 91.2887 167.06 91.3794 167.048Z" fill="#535461"/>
<path opacity="0.2" d="M91.3794 167.048L151.388 160.384L152.128 173.157L124.698 176.097C122.806 176.263 120.902 176.103 119.056 175.623L91.3289 167.881C91.2405 167.856 91.1629 167.799 91.1094 167.719C91.056 167.639 91.03 167.541 91.036 167.442C91.042 167.344 91.0795 167.25 91.1422 167.178C91.2048 167.106 91.2887 167.06 91.3794 167.048Z" fill="black"/>
<path d="M91.3795 166.781L151.883 160.117L152.622 172.89L125.19 175.293C123.299 175.461 121.396 175.304 119.551 174.827L91.329 167.617C91.239 167.593 91.1595 167.536 91.1046 167.456C91.0497 167.375 91.0229 167.276 91.0289 167.176C91.035 167.076 91.0734 166.982 91.1376 166.909C91.2017 166.837 91.2874 166.792 91.3795 166.781Z" fill="#535461"/>
<path opacity="0.3" d="M105.724 167.246L137.716 163.723L138.107 170.476L123.603 171.749C122.602 171.837 121.595 171.753 120.619 171.499L105.698 167.686C105.651 167.673 105.61 167.643 105.581 167.6C105.553 167.558 105.539 167.506 105.542 167.454C105.545 167.402 105.565 167.353 105.599 167.315C105.632 167.277 105.676 167.253 105.724 167.246Z" fill="white"/>
<path opacity="0.1" d="M129.785 122.524C129.591 122.811 129.253 122.94 128.737 122.86C123.813 122.061 118.149 129.78 118.149 129.78C118.149 129.78 118.048 129.883 117.865 130.067C117.29 128.683 116.81 127.256 116.427 125.797L126.767 117.532L129.785 122.524Z" fill="black"/>
<path opacity="0.1" d="M115.06 132.188C112.744 133.581 109.556 134.582 107.07 131.9C102.776 127.259 95.2482 127.877 94.7803 127.906C95.5487 127.791 96.2294 126.084 96.809 123.797L97.9577 121.785C97.9577 121.785 114.948 117.532 115.195 128.452C115.224 129.699 115.179 130.947 115.06 132.188Z" fill="black"/>
<path opacity="0.1" d="M106.147 108.656L104.605 120.725L101.13 128.047C98.976 127.451 96.749 127.225 94.5303 127.377C96.9791 127.012 98.5612 110.475 98.5612 110.475L98.7021 110.44L106.147 108.656Z" fill="black"/>
<path d="M128.737 122.328C123.813 121.529 118.149 129.248 118.149 129.248C118.149 129.248 111.502 136.168 107.07 131.377C102.776 126.736 95.2482 127.354 94.7803 127.383C97.2291 127.015 98.8112 110.477 98.8112 110.477L98.9521 110.443L122.582 104.765C122.582 104.765 123.991 107.098 125.581 110.069C128.45 115.423 131.907 122.843 128.737 122.328Z" fill="#EC7580"/>
<path opacity="0.1" d="M122.827 111.684C123.074 112.216 118.886 114.877 116.918 114.078C114.951 113.279 110.024 117.526 109.532 118.07C109.04 118.613 97.9604 117.271 97.9604 117.271C98.4202 115.019 98.7514 112.739 98.9522 110.443L122.582 104.765C122.582 104.765 123.991 107.098 125.581 110.069C124.111 110.722 122.707 111.423 122.827 111.684Z" fill="black"/>
<path opacity="0.1" d="M108.545 89.8618L106.152 108.655L105.025 117.489C101.723 117.222 97.7182 116.742 97.7182 116.742C97.7182 116.742 101.903 97.8477 95.0088 88.0054C95.0088 88.0054 95.155 88.0054 95.4183 87.9767C99.287 94.9252 108.545 89.8618 108.545 89.8618Z" fill="black"/>
<path d="M95.251 87.9997C95.251 87.9997 107.809 86.9365 112.733 90.6607C117.658 94.385 124.799 105.563 124.799 105.563L128.74 108.224C128.74 108.224 122.585 110.618 122.832 111.153C123.079 111.687 118.891 114.345 116.924 113.546C114.956 112.748 110.029 116.995 109.537 117.538C109.045 118.081 97.9657 116.739 97.9657 116.739C97.9657 116.739 102.146 97.8448 95.251 87.9997Z" fill="#EC7580"/>
<path d="M185.978 161.312C183.128 161.237 116.115 159.358 109.718 151.645C102.906 143.432 109.519 119.768 115.086 102.681C121.146 84.08 113.922 57.3695 113.85 57.0649L114.326 56.9298C114.4 57.2373 121.662 84.103 115.552 102.856C106.892 129.441 105.102 145.283 110.085 151.289C116.344 158.832 185.295 160.772 185.991 160.772L185.978 161.312Z" fill="#DFE6F5"/>
<path d="M139.649 95.0057L201.639 93.9884C202.438 94.0765 203.213 94.3358 203.919 94.7511C204.624 95.1664 205.246 95.7295 205.747 96.4074C206.249 97.0853 206.621 97.8645 206.841 98.6994C207.061 99.5344 207.125 100.408 207.029 101.27L199.996 164.548C199.828 166.068 199.171 167.476 198.141 168.527C197.11 169.577 195.771 170.203 194.356 170.295L130.997 174.534C130.1 174.592 129.202 174.433 128.369 174.069C127.536 173.705 126.788 173.145 126.181 172.429C125.573 171.714 125.121 170.861 124.856 169.932C124.592 169.004 124.523 168.023 124.653 167.062L133.066 100.56C133.291 98.8971 134.102 97.3916 135.328 96.3571C136.554 95.3226 138.102 94.8386 139.649 95.0057Z" fill="#535461"/>
<path opacity="0.2" d="M139.649 95.0057L201.639 93.9884C202.438 94.0765 203.213 94.3358 203.919 94.7511C204.624 95.1664 205.246 95.7295 205.747 96.4074C206.249 97.0853 206.621 97.8645 206.841 98.6994C207.061 99.5344 207.125 100.408 207.029 101.27L199.996 164.548C199.828 166.068 199.171 167.476 198.141 168.527C197.11 169.577 195.771 170.203 194.356 170.295L130.997 174.534C130.1 174.592 129.202 174.433 128.369 174.069C127.536 173.705 126.788 173.145 126.181 172.429C125.573 171.714 125.121 170.861 124.856 169.932C124.592 169.004 124.523 168.023 124.653 167.062L133.066 100.56C133.291 98.8971 134.102 97.3916 135.328 96.3571C136.554 95.3226 138.102 94.8386 139.649 95.0057Z" fill="black"/>
<path d="M140.141 95.0057L202.131 93.9884C202.931 94.0751 203.707 94.3333 204.414 94.748C205.12 95.1627 205.743 95.7256 206.246 96.4037C206.749 97.0817 207.121 97.8614 207.342 98.697C207.563 99.5326 207.627 100.407 207.531 101.27L200.498 164.548C200.33 166.068 199.674 167.476 198.643 168.527C197.612 169.577 196.273 170.203 194.859 170.295L131.492 174.534C130.595 174.592 129.697 174.433 128.864 174.069C128.03 173.705 127.283 173.145 126.675 172.429C126.067 171.714 125.615 170.861 125.351 169.932C125.086 169.004 125.017 168.023 125.148 167.062L133.56 100.56C133.786 98.8976 134.596 97.3926 135.821 96.3582C137.047 95.3237 138.594 94.8393 140.141 95.0057Z" fill="#6C63FF"/>
<path opacity="0.3" d="M170.471 134.168C172.103 134.168 173.425 132.738 173.425 130.975C173.425 129.212 172.103 127.782 170.471 127.782C168.84 127.782 167.517 129.212 167.517 130.975C167.517 132.738 168.84 134.168 170.471 134.168Z" fill="white"/>
<path opacity="0.1" d="M108.327 163.571C98.6888 164.692 88.1196 164.108 88.1196 164.108L77.2739 167.301L46.7443 176.882C45.4149 175.022 44.3513 172.686 43.4712 170.054L46.497 166.238C56.0186 159.95 59.1295 152.091 59.5842 145.171C60.3978 152.053 60.5334 158.252 60.5334 158.252L72.8442 156.921L90.7306 152.323C91.9623 152.007 93.2242 151.847 94.4903 151.849C96.8195 151.849 100.965 151.904 105.392 152.162C104.802 154.752 106.317 159.2 108.327 163.571Z" fill="black"/>
<path opacity="0.1" d="M121.842 160.117C116.179 167.301 87.1251 165.706 87.1251 165.706L76.2901 168.899L45.7578 178.476C45.6249 178.29 45.4919 178.1 45.3696 177.902L116.424 155.177C120.96 156.165 123.744 157.706 121.842 160.117Z" fill="black"/>
<path d="M121.843 159.585C116.179 166.769 87.1254 165.174 87.1254 165.174L76.2904 168.364L45.7581 177.945C38.5791 167.887 38.7386 143.918 39.1295 134.222C39.2358 131.619 39.3555 130.044 39.3555 130.044C39.3555 130.044 49.696 123.124 54.3757 130.044C55.2106 131.277 55.9099 133.001 56.5028 135.001C59.2175 144.223 59.5499 159.315 59.5499 159.315L71.8606 157.985L89.7471 153.387C90.9797 153.07 92.2425 152.911 93.5095 152.913C100.923 152.936 126.703 153.418 121.843 159.585Z" fill="#FDC2CC"/>
<path opacity="0.1" d="M56.4998 135.004C54.9284 134.636 53.022 134.717 50.4375 135.901C45.2659 138.294 41.3281 137.763 41.3281 137.763C41.3281 137.763 41.6445 135.047 39.1318 134.222C39.2382 131.619 39.3578 130.044 39.3578 130.044C39.3578 130.044 49.6983 123.124 54.378 130.044C55.2049 131.277 55.9095 133.001 56.4998 135.004Z" fill="black"/>
<path opacity="0.1" d="M87.1119 134.57C86.9471 134.607 84.7322 135.059 80.4647 134.036C76.0323 132.972 74.3093 135.099 71.8471 136.165C69.385 137.231 62.9956 137.763 60.5228 136.699C59.9405 136.447 59.3556 136.125 58.7361 135.837C58.1509 133.265 57.2655 130.783 56.1011 128.452L84.4424 128.596L87.0109 134.317L87.1119 134.57Z" fill="black"/>
<path d="M87.1123 134.038C87.1123 134.038 84.8974 134.57 80.465 133.507C76.0326 132.444 74.3096 134.57 71.8475 135.636C69.3853 136.702 62.9827 137.234 60.5205 136.168C58.0584 135.102 55.5962 132.975 50.4167 135.369C45.2371 137.763 41.3072 137.231 41.3072 137.231C41.3072 137.231 41.7991 132.972 36.6302 133.495C31.4613 134.018 28.0127 131.366 28.0127 131.366L33.506 117.653L35.1545 113.535L76.3517 110.492H76.5484L87.1123 134.038Z" fill="#EC7580"/>
<path opacity="0.1" d="M80.4648 121.268C77.7554 116.478 63.4744 120.736 63.4744 120.736C63.4744 120.736 56.5798 122.866 55.1015 118.874C53.6231 114.883 43.0513 117.532 43.0513 117.532C43.0513 117.532 35.3803 120.641 33.5244 117.659L35.1729 113.541L76.3515 110.492L80.4648 121.268Z" fill="black"/>
<path d="M68.6562 89.8618C68.6562 89.8618 55.1144 86.9336 48.7144 90.6607C42.3144 94.3878 37.3901 102.635 37.3901 102.635L28.0308 111.949C28.0308 111.949 31.724 113.811 33.447 117.003C35.1699 120.196 43.0509 117.003 43.0509 117.003C43.0509 117.003 53.6387 114.342 55.1171 118.334C56.5954 122.325 63.49 120.196 63.49 120.196C63.49 120.196 77.771 115.937 80.4804 120.728L68.6562 89.8618Z" fill="#EC7580"/>
<path opacity="0.1" d="M84.2671 21.6759C82.4324 21.3426 80.5446 21.0179 78.7259 21.446C75.7267 22.1501 73.44 24.7795 71.7569 27.5497C70.0738 30.3199 68.7656 33.3947 66.689 35.8344C65.2984 37.4695 63.5887 38.7828 62.3497 40.5529C60.5257 43.1593 59.8902 46.4841 59.3026 49.6911C58.4411 54.3981 57.577 59.1741 57.9572 63.9645C58.1486 66.3669 58.6538 68.7319 58.7735 71.1486C59.0154 76.0022 57.6886 80.7667 56.3804 85.4163C55.4738 88.629 54.5378 91.9021 52.7457 94.6464C51.5572 96.4655 50.0336 97.9885 48.5819 99.5661C48.2314 99.8878 47.9678 100.306 47.8188 100.776C47.505 102.15 49.0392 103.075 50.2118 103.696C53.7986 105.63 56.1518 109.403 58.941 112.512C61.7302 115.621 65.7212 118.291 69.558 117.044C70.696 116.673 71.7755 115.969 72.9614 115.992C73.7591 116.006 74.5248 116.357 75.2826 116.644C77.1678 117.36 79.1528 117.719 81.1508 117.707C81.5922 117.748 82.035 117.648 82.4245 117.42C83.0174 116.986 83.1317 116.113 83.1902 115.342C83.5651 110.509 83.9374 105.658 83.6848 100.816C83.1131 89.8503 73.7378 77.166 77.3034 66.8755C78.8535 62.3869 81.6879 58.5247 83.2567 54.0447C84.9105 49.3233 90.7415 45.4898 91.8982 40.596C92.0284 40.0443 92.2066 39.4466 92.6533 39.1592C93.2675 38.7511 94.0678 39.1075 94.6608 39.55C98.0163 42.0501 99.1091 46.7514 100.33 50.9526C101.313 54.3365 102.532 57.6353 103.975 60.8207C104.773 62.5449 106.485 64.5421 107.985 63.4961C107.229 70.7607 102.869 77.1057 101.882 84.3358C100.92 91.382 103.252 98.5833 102.348 105.635C101.753 110.176 99.8501 114.398 96.9102 117.705C100.228 118.417 103.64 118.45 106.969 117.802C110.343 117.144 113.954 115.417 115.172 111.952C116.501 108.138 114.446 104.046 113.401 100.126C110.893 90.7038 111.088 79.5598 111.883 69.7923C112.701 59.7489 113.93 50.9555 111.848 41.1276C111.337 38.7167 110.819 36.2856 109.84 34.0499C107.782 29.3514 103.549 25.9893 98.9097 24.8053C96.5167 24.1961 94.0758 25.1416 91.8476 24.6933C90.7256 24.4662 89.7205 23.3053 88.6304 22.834C87.2318 22.2162 85.7321 21.9403 84.2671 21.6759Z" fill="black"/>
<path d="M115.158 111.4C113.94 114.865 110.33 116.592 106.953 117.251C103.624 117.897 100.212 117.864 96.8942 117.153C99.8332 113.846 101.735 109.623 102.332 105.084C103.238 98.0287 100.906 90.8273 101.866 83.784C102.853 76.5511 107.213 70.2061 107.969 62.9415C106.469 63.9875 104.743 61.9989 103.956 60.2661C102.514 57.0804 101.295 53.7817 100.311 50.398C99.0905 46.1967 97.9976 41.4897 94.6421 38.9954C94.0492 38.5528 93.2488 38.1965 92.6346 38.6074C92.1853 38.8948 92.0098 39.5011 91.8795 40.0443C90.7255 44.9295 84.8919 48.7686 83.2407 53.49C81.6693 57.9701 78.8349 61.8236 77.2847 66.3209C73.7324 76.6085 83.1077 89.2928 83.6661 100.259C83.9161 105.101 83.5438 109.954 83.1716 114.785C83.1104 115.558 82.9961 116.432 82.4031 116.865C82.0146 117.093 81.5727 117.193 81.1322 117.153C79.1397 117.166 77.1601 116.808 75.2799 116.095C74.5221 115.808 73.7617 115.457 72.9587 115.443C71.7728 115.423 70.6933 116.127 69.5553 116.495C65.7185 117.742 61.7248 115.072 58.9383 111.963C56.1517 108.854 53.7906 105.086 50.2064 103.164C49.0338 102.532 47.4996 101.618 47.8134 100.241C47.9637 99.7728 48.2271 99.3561 48.5765 99.0345C50.0283 97.4569 51.5545 95.931 52.743 94.1148C54.5351 91.3705 55.4684 88.0974 56.3777 84.8847C57.6912 80.2351 59.018 75.4706 58.7708 70.617C58.6538 68.2117 58.1486 65.8467 57.9545 63.4329C57.5716 58.6511 58.4384 53.8694 59.2999 49.1623C59.8848 45.9553 60.5203 42.6305 62.347 40.0241C63.5887 38.254 65.2957 36.9407 66.689 35.3056C68.7683 32.8659 70.0711 29.7911 71.7569 27.018C73.4426 24.2449 75.7293 21.6184 78.7285 20.9144C80.5446 20.4862 82.435 20.8138 84.2697 21.1443C85.7347 21.4115 87.2344 21.6874 88.6197 22.2937C89.7125 22.765 90.7175 23.9288 91.8369 24.1501C94.0651 24.6013 96.514 23.6558 98.899 24.265C103.539 25.4461 107.772 28.8083 109.83 33.5067C110.232 34.4367 110.572 35.3971 110.845 36.3803C111.239 37.7597 111.539 39.1707 111.837 40.5787C111.901 40.8661 111.962 41.1765 112.021 41.4725C113.842 50.8291 112.667 57.6425 111.872 67.3755C111.077 77.1086 110.883 90.1492 113.387 99.5604C114.432 103.492 116.498 107.586 115.158 111.4Z" fill="#865A61"/>
<path opacity="0.05" d="M86.7556 128.317C86.7556 128.317 88.7259 131.765 88.7259 134.171C88.7259 134.171 90.2042 128.317 91.4353 128.317" fill="black"/>
<path d="M82.0758 129.113V146.677C82.0797 149.546 81.1857 152.332 79.5392 154.582C79.258 154.966 78.957 155.332 78.6379 155.68C77.5397 156.872 76.2345 157.818 74.7972 158.463C73.3599 159.109 71.8187 159.441 70.2623 159.441C68.7058 159.441 67.1647 159.109 65.7274 158.463C64.2901 157.818 62.9849 156.872 61.8867 155.68C61.5676 155.332 61.2666 154.966 60.9854 154.582C59.3389 152.332 58.4449 149.546 58.4488 146.677V129.113C58.4432 126.129 59.4099 123.237 61.1795 120.946C61.4936 120.539 61.832 120.155 62.1925 119.797C64.3811 117.579 67.2688 116.345 70.2689 116.345C73.2691 116.345 76.1567 117.579 78.3454 119.797C78.4411 119.889 78.5342 119.989 78.6272 120.084C78.8931 120.371 79.1244 120.659 79.3584 120.946C81.1232 123.239 82.0852 126.13 82.0758 129.113Z" fill="#DFE6F5"/>
<path opacity="0.1" d="M82.0758 129.113V146.677C82.0797 149.546 81.1857 152.332 79.5392 154.582C79.258 154.966 78.957 155.332 78.6379 155.68C77.5397 156.872 76.2345 157.818 74.7972 158.463C73.3599 159.109 71.8187 159.441 70.2623 159.441C68.7058 159.441 67.1647 159.109 65.7274 158.463C64.2901 157.818 62.9849 156.872 61.8867 155.68C61.5676 155.332 61.2666 154.966 60.9854 154.582C59.3389 152.332 58.4449 149.546 58.4488 146.677V129.113C58.4432 126.129 59.4099 123.237 61.1795 120.946C61.4936 120.539 61.832 120.155 62.1925 119.797C64.3811 117.579 67.2688 116.345 70.2689 116.345C73.2691 116.345 76.1567 117.579 78.3454 119.797C78.4411 119.889 78.5342 119.989 78.6272 120.084C78.8931 120.371 79.1244 120.659 79.3584 120.946C81.1232 123.239 82.0852 126.13 82.0758 129.113Z" fill="black"/>
<path d="M82.5705 129.113V146.677C82.5744 149.546 81.6804 152.332 80.0339 154.582C79.7526 154.966 79.4517 155.332 79.1325 155.68C78.0344 156.872 76.7292 157.818 75.2919 158.463C73.8546 159.109 72.3134 159.441 70.757 159.441C69.2005 159.441 67.6594 159.109 66.2221 158.463C64.7848 157.818 63.4796 156.872 62.3814 155.68C62.0623 155.332 61.7613 154.966 61.4801 154.582C59.8279 152.334 58.9282 149.548 58.9275 146.677V129.113C58.9219 126.129 59.8887 123.237 61.6582 120.946C61.9723 120.539 62.3107 120.155 62.6713 119.797C64.8599 117.579 67.7475 116.345 70.7477 116.345C73.7478 116.345 76.6355 117.579 78.8241 119.797C78.9198 119.889 79.0129 119.989 79.106 120.084C79.3719 120.371 79.6032 120.659 79.8372 120.946C81.6077 123.237 82.5754 126.128 82.5705 129.113Z" fill="#DFE6F5"/>
<path opacity="0.1" d="M65.5775 121.13C65.9858 121.13 66.3167 120.772 66.3167 120.331C66.3167 119.89 65.9858 119.532 65.5775 119.532C65.1693 119.532 64.8384 119.89 64.8384 120.331C64.8384 120.772 65.1693 121.13 65.5775 121.13Z" fill="black"/>
<path opacity="0.1" d="M65.5775 123.791C65.9858 123.791 66.3167 123.433 66.3167 122.992C66.3167 122.551 65.9858 122.193 65.5775 122.193C65.1693 122.193 64.8384 122.551 64.8384 122.992C64.8384 123.433 65.1693 123.791 65.5775 123.791Z" fill="black"/>
<path opacity="0.1" d="M65.5775 126.452C65.9858 126.452 66.3167 126.094 66.3167 125.653C66.3167 125.212 65.9858 124.854 65.5775 124.854C65.1693 124.854 64.8384 125.212 64.8384 125.653C64.8384 126.094 65.1693 126.452 65.5775 126.452Z" fill="black"/>
<path opacity="0.1" d="M65.5775 129.113C65.9858 129.113 66.3167 128.755 66.3167 128.314C66.3167 127.873 65.9858 127.515 65.5775 127.515C65.1693 127.515 64.8384 127.873 64.8384 128.314C64.8384 128.755 65.1693 129.113 65.5775 129.113Z" fill="black"/>
<path opacity="0.1" d="M65.5775 131.774C65.9858 131.774 66.3167 131.416 66.3167 130.975C66.3167 130.534 65.9858 130.176 65.5775 130.176C65.1693 130.176 64.8384 130.534 64.8384 130.975C64.8384 131.416 65.1693 131.774 65.5775 131.774Z" fill="black"/>
<path opacity="0.1" d="M65.5775 134.435C65.9858 134.435 66.3167 134.077 66.3167 133.636C66.3167 133.195 65.9858 132.837 65.5775 132.837C65.1693 132.837 64.8384 133.195 64.8384 133.636C64.8384 134.077 65.1693 134.435 65.5775 134.435Z" fill="black"/>
<path opacity="0.1" d="M65.5775 137.096C65.9858 137.096 66.3167 136.738 66.3167 136.297C66.3167 135.856 65.9858 135.498 65.5775 135.498C65.1693 135.498 64.8384 135.856 64.8384 136.297C64.8384 136.738 65.1693 137.096 65.5775 137.096Z" fill="black"/>
<path opacity="0.1" d="M65.5775 139.76C65.9858 139.76 66.3167 139.402 66.3167 138.961C66.3167 138.52 65.9858 138.162 65.5775 138.162C65.1693 138.162 64.8384 138.52 64.8384 138.961C64.8384 139.402 65.1693 139.76 65.5775 139.76Z" fill="black"/>
<path opacity="0.1" d="M65.5775 142.421C65.9858 142.421 66.3167 142.063 66.3167 141.622C66.3167 141.181 65.9858 140.823 65.5775 140.823C65.1693 140.823 64.8384 141.181 64.8384 141.622C64.8384 142.063 65.1693 142.421 65.5775 142.421Z" fill="black"/>
<path opacity="0.1" d="M65.5775 145.082C65.9858 145.082 66.3167 144.724 66.3167 144.283C66.3167 143.842 65.9858 143.484 65.5775 143.484C65.1693 143.484 64.8384 143.842 64.8384 144.283C64.8384 144.724 65.1693 145.082 65.5775 145.082Z" fill="black"/>
<path opacity="0.1" d="M65.5775 147.743C65.9858 147.743 66.3167 147.385 66.3167 146.944C66.3167 146.503 65.9858 146.145 65.5775 146.145C65.1693 146.145 64.8384 146.503 64.8384 146.944C64.8384 147.385 65.1693 147.743 65.5775 147.743Z" fill="black"/>
<path opacity="0.1" d="M65.5775 150.404C65.9858 150.404 66.3167 150.046 66.3167 149.605C66.3167 149.164 65.9858 148.806 65.5775 148.806C65.1693 148.806 64.8384 149.164 64.8384 149.605C64.8384 150.046 65.1693 150.404 65.5775 150.404Z" fill="black"/>
<path opacity="0.1" d="M65.5775 153.065C65.9858 153.065 66.3167 152.707 66.3167 152.266C66.3167 151.825 65.9858 151.467 65.5775 151.467C65.1693 151.467 64.8384 151.825 64.8384 152.266C64.8384 152.707 65.1693 153.065 65.5775 153.065Z" fill="black"/>
<path opacity="0.1" d="M65.5775 155.726C65.9858 155.726 66.3167 155.368 66.3167 154.927C66.3167 154.486 65.9858 154.128 65.5775 154.128C65.1693 154.128 64.8384 154.486 64.8384 154.927C64.8384 155.368 65.1693 155.726 65.5775 155.726Z" fill="black"/>
<path opacity="0.1" d="M62.8707 120.331C62.8705 120.483 62.8305 120.631 62.7553 120.759C62.6802 120.886 62.5729 120.989 62.4461 121.053C62.3193 121.117 62.1782 121.142 62.0392 121.123C61.9001 121.104 61.7689 121.043 61.6609 120.946C61.975 120.539 62.3134 120.155 62.6739 119.797C62.8 119.941 62.8704 120.132 62.8707 120.331Z" fill="black"/>
<path opacity="0.1" d="M62.1315 123.791C62.5397 123.791 62.8707 123.433 62.8707 122.992C62.8707 122.551 62.5397 122.193 62.1315 122.193C61.7233 122.193 61.3923 122.551 61.3923 122.992C61.3923 123.433 61.7233 123.791 62.1315 123.791Z" fill="black"/>
<path opacity="0.1" d="M62.1315 126.452C62.5397 126.452 62.8707 126.094 62.8707 125.653C62.8707 125.212 62.5397 124.854 62.1315 124.854C61.7233 124.854 61.3923 125.212 61.3923 125.653C61.3923 126.094 61.7233 126.452 62.1315 126.452Z" fill="black"/>
<path opacity="0.1" d="M62.1315 129.113C62.5397 129.113 62.8707 128.755 62.8707 128.314C62.8707 127.873 62.5397 127.515 62.1315 127.515C61.7233 127.515 61.3923 127.873 61.3923 128.314C61.3923 128.755 61.7233 129.113 62.1315 129.113Z" fill="black"/>
<path opacity="0.1" d="M62.1315 131.774C62.5397 131.774 62.8707 131.416 62.8707 130.975C62.8707 130.534 62.5397 130.176 62.1315 130.176C61.7233 130.176 61.3923 130.534 61.3923 130.975C61.3923 131.416 61.7233 131.774 62.1315 131.774Z" fill="black"/>
<path opacity="0.1" d="M62.1315 134.435C62.5397 134.435 62.8707 134.077 62.8707 133.636C62.8707 133.195 62.5397 132.837 62.1315 132.837C61.7233 132.837 61.3923 133.195 61.3923 133.636C61.3923 134.077 61.7233 134.435 62.1315 134.435Z" fill="black"/>
<path opacity="0.1" d="M62.1315 137.096C62.5397 137.096 62.8707 136.738 62.8707 136.297C62.8707 135.856 62.5397 135.498 62.1315 135.498C61.7233 135.498 61.3923 135.856 61.3923 136.297C61.3923 136.738 61.7233 137.096 62.1315 137.096Z" fill="black"/>
<path opacity="0.1" d="M62.1315 139.76C62.5397 139.76 62.8707 139.402 62.8707 138.961C62.8707 138.52 62.5397 138.162 62.1315 138.162C61.7233 138.162 61.3923 138.52 61.3923 138.961C61.3923 139.402 61.7233 139.76 62.1315 139.76Z" fill="black"/>
<path opacity="0.1" d="M62.1315 142.421C62.5397 142.421 62.8707 142.063 62.8707 141.622C62.8707 141.181 62.5397 140.823 62.1315 140.823C61.7233 140.823 61.3923 141.181 61.3923 141.622C61.3923 142.063 61.7233 142.421 62.1315 142.421Z" fill="black"/>
<path opacity="0.1" d="M62.1315 145.082C62.5397 145.082 62.8707 144.724 62.8707 144.283C62.8707 143.842 62.5397 143.484 62.1315 143.484C61.7233 143.484 61.3923 143.842 61.3923 144.283C61.3923 144.724 61.7233 145.082 62.1315 145.082Z" fill="black"/>
<path opacity="0.1" d="M62.1315 147.743C62.5397 147.743 62.8707 147.385 62.8707 146.944C62.8707 146.503 62.5397 146.145 62.1315 146.145C61.7233 146.145 61.3923 146.503 61.3923 146.944C61.3923 147.385 61.7233 147.743 62.1315 147.743Z" fill="black"/>
<path opacity="0.1" d="M62.1315 150.404C62.5397 150.404 62.8707 150.046 62.8707 149.605C62.8707 149.164 62.5397 148.806 62.1315 148.806C61.7233 148.806 61.3923 149.164 61.3923 149.605C61.3923 150.046 61.7233 150.404 62.1315 150.404Z" fill="black"/>
<path opacity="0.1" d="M62.1315 153.065C62.5397 153.065 62.8707 152.707 62.8707 152.266C62.8707 151.825 62.5397 151.467 62.1315 151.467C61.7233 151.467 61.3923 151.825 61.3923 152.266C61.3923 152.707 61.7233 153.065 62.1315 153.065Z" fill="black"/>
<path opacity="0.1" d="M62.8707 154.927C62.8709 155.094 62.8225 155.257 62.7323 155.392C62.6421 155.528 62.5147 155.63 62.3682 155.683C62.049 155.335 61.7481 154.969 61.4668 154.585C61.5379 154.42 61.6589 154.287 61.8097 154.207C61.9606 154.127 62.1322 154.105 62.2961 154.145C62.4601 154.185 62.6064 154.284 62.7109 154.427C62.8154 154.569 62.8718 154.745 62.8707 154.927Z" fill="black"/>
<path opacity="0.1" d="M69.026 121.13C69.4343 121.13 69.7652 120.772 69.7652 120.331C69.7652 119.89 69.4343 119.532 69.026 119.532C68.6178 119.532 68.2869 119.89 68.2869 120.331C68.2869 120.772 68.6178 121.13 69.026 121.13Z" fill="black"/>
<path opacity="0.1" d="M69.026 123.791C69.4343 123.791 69.7652 123.433 69.7652 122.992C69.7652 122.551 69.4343 122.193 69.026 122.193C68.6178 122.193 68.2869 122.551 68.2869 122.992C68.2869 123.433 68.6178 123.791 69.026 123.791Z" fill="black"/>
<path opacity="0.1" d="M69.026 126.452C69.4343 126.452 69.7652 126.094 69.7652 125.653C69.7652 125.212 69.4343 124.854 69.026 124.854C68.6178 124.854 68.2869 125.212 68.2869 125.653C68.2869 126.094 68.6178 126.452 69.026 126.452Z" fill="black"/>
<path opacity="0.1" d="M69.026 129.113C69.4343 129.113 69.7652 128.755 69.7652 128.314C69.7652 127.873 69.4343 127.515 69.026 127.515C68.6178 127.515 68.2869 127.873 68.2869 128.314C68.2869 128.755 68.6178 129.113 69.026 129.113Z" fill="black"/>
<path opacity="0.1" d="M69.026 131.774C69.4343 131.774 69.7652 131.416 69.7652 130.975C69.7652 130.534 69.4343 130.176 69.026 130.176C68.6178 130.176 68.2869 130.534 68.2869 130.975C68.2869 131.416 68.6178 131.774 69.026 131.774Z" fill="black"/>
<path opacity="0.1" d="M69.026 134.435C69.4343 134.435 69.7652 134.077 69.7652 133.636C69.7652 133.195 69.4343 132.837 69.026 132.837C68.6178 132.837 68.2869 133.195 68.2869 133.636C68.2869 134.077 68.6178 134.435 69.026 134.435Z" fill="black"/>
<path opacity="0.1" d="M69.026 137.096C69.4343 137.096 69.7652 136.738 69.7652 136.297C69.7652 135.856 69.4343 135.498 69.026 135.498C68.6178 135.498 68.2869 135.856 68.2869 136.297C68.2869 136.738 68.6178 137.096 69.026 137.096Z" fill="black"/>
<path opacity="0.1" d="M69.026 139.76C69.4343 139.76 69.7652 139.402 69.7652 138.961C69.7652 138.52 69.4343 138.162 69.026 138.162C68.6178 138.162 68.2869 138.52 68.2869 138.961C68.2869 139.402 68.6178 139.76 69.026 139.76Z" fill="black"/>
<path opacity="0.1" d="M69.026 142.421C69.4343 142.421 69.7652 142.063 69.7652 141.622C69.7652 141.181 69.4343 140.823 69.026 140.823C68.6178 140.823 68.2869 141.181 68.2869 141.622C68.2869 142.063 68.6178 142.421 69.026 142.421Z" fill="black"/>
<path opacity="0.1" d="M69.026 145.082C69.4343 145.082 69.7652 144.724 69.7652 144.283C69.7652 143.842 69.4343 143.484 69.026 143.484C68.6178 143.484 68.2869 143.842 68.2869 144.283C68.2869 144.724 68.6178 145.082 69.026 145.082Z" fill="black"/>
<path opacity="0.1" d="M69.026 147.743C69.4343 147.743 69.7652 147.385 69.7652 146.944C69.7652 146.503 69.4343 146.145 69.026 146.145C68.6178 146.145 68.2869 146.503 68.2869 146.944C68.2869 147.385 68.6178 147.743 69.026 147.743Z" fill="black"/>
<path opacity="0.1" d="M69.026 150.404C69.4343 150.404 69.7652 150.046 69.7652 149.605C69.7652 149.164 69.4343 148.806 69.026 148.806C68.6178 148.806 68.2869 149.164 68.2869 149.605C68.2869 150.046 68.6178 150.404 69.026 150.404Z" fill="black"/>
<path opacity="0.1" d="M69.026 153.065C69.4343 153.065 69.7652 152.707 69.7652 152.266C69.7652 151.825 69.4343 151.467 69.026 151.467C68.6178 151.467 68.2869 151.825 68.2869 152.266C68.2869 152.707 68.6178 153.065 69.026 153.065Z" fill="black"/>
<path opacity="0.1" d="M69.026 155.726C69.4343 155.726 69.7652 155.368 69.7652 154.927C69.7652 154.486 69.4343 154.128 69.026 154.128C68.6178 154.128 68.2869 154.486 68.2869 154.927C68.2869 155.368 68.6178 155.726 69.026 155.726Z" fill="black"/>
<path opacity="0.1" d="M72.4721 121.13C72.8803 121.13 73.2113 120.772 73.2113 120.331C73.2113 119.89 72.8803 119.532 72.4721 119.532C72.0638 119.532 71.7329 119.89 71.7329 120.331C71.7329 120.772 72.0638 121.13 72.4721 121.13Z" fill="black"/>
<path opacity="0.1" d="M72.4721 123.791C72.8803 123.791 73.2113 123.433 73.2113 122.992C73.2113 122.551 72.8803 122.193 72.4721 122.193C72.0638 122.193 71.7329 122.551 71.7329 122.992C71.7329 123.433 72.0638 123.791 72.4721 123.791Z" fill="black"/>
<path opacity="0.1" d="M72.4721 126.452C72.8803 126.452 73.2113 126.094 73.2113 125.653C73.2113 125.212 72.8803 124.854 72.4721 124.854C72.0638 124.854 71.7329 125.212 71.7329 125.653C71.7329 126.094 72.0638 126.452 72.4721 126.452Z" fill="black"/>
<path opacity="0.1" d="M72.4721 129.113C72.8803 129.113 73.2113 128.755 73.2113 128.314C73.2113 127.873 72.8803 127.515 72.4721 127.515C72.0638 127.515 71.7329 127.873 71.7329 128.314C71.7329 128.755 72.0638 129.113 72.4721 129.113Z" fill="black"/>
<path opacity="0.1" d="M72.4721 131.774C72.8803 131.774 73.2113 131.416 73.2113 130.975C73.2113 130.534 72.8803 130.176 72.4721 130.176C72.0638 130.176 71.7329 130.534 71.7329 130.975C71.7329 131.416 72.0638 131.774 72.4721 131.774Z" fill="black"/>
<path opacity="0.1" d="M72.4721 134.435C72.8803 134.435 73.2113 134.077 73.2113 133.636C73.2113 133.195 72.8803 132.837 72.4721 132.837C72.0638 132.837 71.7329 133.195 71.7329 133.636C71.7329 134.077 72.0638 134.435 72.4721 134.435Z" fill="black"/>
<path opacity="0.1" d="M72.4721 137.096C72.8803 137.096 73.2113 136.738 73.2113 136.297C73.2113 135.856 72.8803 135.498 72.4721 135.498C72.0638 135.498 71.7329 135.856 71.7329 136.297C71.7329 136.738 72.0638 137.096 72.4721 137.096Z" fill="black"/>
<path opacity="0.1" d="M72.4721 139.76C72.8803 139.76 73.2113 139.402 73.2113 138.961C73.2113 138.52 72.8803 138.162 72.4721 138.162C72.0638 138.162 71.7329 138.52 71.7329 138.961C71.7329 139.402 72.0638 139.76 72.4721 139.76Z" fill="black"/>
<path opacity="0.1" d="M72.4721 142.421C72.8803 142.421 73.2113 142.063 73.2113 141.622C73.2113 141.181 72.8803 140.823 72.4721 140.823C72.0638 140.823 71.7329 141.181 71.7329 141.622C71.7329 142.063 72.0638 142.421 72.4721 142.421Z" fill="black"/>
<path opacity="0.1" d="M72.4721 145.082C72.8803 145.082 73.2113 144.724 73.2113 144.283C73.2113 143.842 72.8803 143.484 72.4721 143.484C72.0638 143.484 71.7329 143.842 71.7329 144.283C71.7329 144.724 72.0638 145.082 72.4721 145.082Z" fill="black"/>
<path opacity="0.1" d="M72.4721 147.743C72.8803 147.743 73.2113 147.385 73.2113 146.944C73.2113 146.503 72.8803 146.145 72.4721 146.145C72.0638 146.145 71.7329 146.503 71.7329 146.944C71.7329 147.385 72.0638 147.743 72.4721 147.743Z" fill="black"/>
<path opacity="0.1" d="M72.4721 150.404C72.8803 150.404 73.2113 150.046 73.2113 149.605C73.2113 149.164 72.8803 148.806 72.4721 148.806C72.0638 148.806 71.7329 149.164 71.7329 149.605C71.7329 150.046 72.0638 150.404 72.4721 150.404Z" fill="black"/>
<path opacity="0.1" d="M72.4721 153.065C72.8803 153.065 73.2113 152.707 73.2113 152.266C73.2113 151.825 72.8803 151.467 72.4721 151.467C72.0638 151.467 71.7329 151.825 71.7329 152.266C71.7329 152.707 72.0638 153.065 72.4721 153.065Z" fill="black"/>
<path opacity="0.1" d="M72.4721 155.726C72.8803 155.726 73.2113 155.368 73.2113 154.927C73.2113 154.486 72.8803 154.128 72.4721 154.128C72.0638 154.128 71.7329 154.486 71.7329 154.927C71.7329 155.368 72.0638 155.726 72.4721 155.726Z" fill="black"/>
<path opacity="0.1" d="M75.9206 121.13C76.3288 121.13 76.6597 120.772 76.6597 120.331C76.6597 119.89 76.3288 119.532 75.9206 119.532C75.5123 119.532 75.1814 119.89 75.1814 120.331C75.1814 120.772 75.5123 121.13 75.9206 121.13Z" fill="black"/>
<path opacity="0.1" d="M75.9206 123.791C76.3288 123.791 76.6597 123.433 76.6597 122.992C76.6597 122.551 76.3288 122.193 75.9206 122.193C75.5123 122.193 75.1814 122.551 75.1814 122.992C75.1814 123.433 75.5123 123.791 75.9206 123.791Z" fill="black"/>
<path opacity="0.1" d="M75.9206 126.452C76.3288 126.452 76.6597 126.094 76.6597 125.653C76.6597 125.212 76.3288 124.854 75.9206 124.854C75.5123 124.854 75.1814 125.212 75.1814 125.653C75.1814 126.094 75.5123 126.452 75.9206 126.452Z" fill="black"/>
<path opacity="0.1" d="M75.9206 129.113C76.3288 129.113 76.6597 128.755 76.6597 128.314C76.6597 127.873 76.3288 127.515 75.9206 127.515C75.5123 127.515 75.1814 127.873 75.1814 128.314C75.1814 128.755 75.5123 129.113 75.9206 129.113Z" fill="black"/>
<path opacity="0.1" d="M75.9206 131.774C76.3288 131.774 76.6597 131.416 76.6597 130.975C76.6597 130.534 76.3288 130.176 75.9206 130.176C75.5123 130.176 75.1814 130.534 75.1814 130.975C75.1814 131.416 75.5123 131.774 75.9206 131.774Z" fill="black"/>
<path opacity="0.1" d="M75.9206 134.435C76.3288 134.435 76.6597 134.077 76.6597 133.636C76.6597 133.195 76.3288 132.837 75.9206 132.837C75.5123 132.837 75.1814 133.195 75.1814 133.636C75.1814 134.077 75.5123 134.435 75.9206 134.435Z" fill="black"/>
<path opacity="0.1" d="M75.9206 137.096C76.3288 137.096 76.6597 136.738 76.6597 136.297C76.6597 135.856 76.3288 135.498 75.9206 135.498C75.5123 135.498 75.1814 135.856 75.1814 136.297C75.1814 136.738 75.5123 137.096 75.9206 137.096Z" fill="black"/>
<path opacity="0.1" d="M75.9206 139.76C76.3288 139.76 76.6597 139.402 76.6597 138.961C76.6597 138.52 76.3288 138.162 75.9206 138.162C75.5123 138.162 75.1814 138.52 75.1814 138.961C75.1814 139.402 75.5123 139.76 75.9206 139.76Z" fill="black"/>
<path opacity="0.1" d="M75.9206 142.421C76.3288 142.421 76.6597 142.063 76.6597 141.622C76.6597 141.181 76.3288 140.823 75.9206 140.823C75.5123 140.823 75.1814 141.181 75.1814 141.622C75.1814 142.063 75.5123 142.421 75.9206 142.421Z" fill="black"/>
<path opacity="0.1" d="M75.9206 145.082C76.3288 145.082 76.6597 144.724 76.6597 144.283C76.6597 143.842 76.3288 143.484 75.9206 143.484C75.5123 143.484 75.1814 143.842 75.1814 144.283C75.1814 144.724 75.5123 145.082 75.9206 145.082Z" fill="black"/>
<path opacity="0.1" d="M75.9206 147.743C76.3288 147.743 76.6597 147.385 76.6597 146.944C76.6597 146.503 76.3288 146.145 75.9206 146.145C75.5123 146.145 75.1814 146.503 75.1814 146.944C75.1814 147.385 75.5123 147.743 75.9206 147.743Z" fill="black"/>
<path opacity="0.1" d="M75.9206 150.404C76.3288 150.404 76.6597 150.046 76.6597 149.605C76.6597 149.164 76.3288 148.806 75.9206 148.806C75.5123 148.806 75.1814 149.164 75.1814 149.605C75.1814 150.046 75.5123 150.404 75.9206 150.404Z" fill="black"/>
<path opacity="0.1" d="M75.9206 153.065C76.3288 153.065 76.6597 152.707 76.6597 152.266C76.6597 151.825 76.3288 151.467 75.9206 151.467C75.5123 151.467 75.1814 151.825 75.1814 152.266C75.1814 152.707 75.5123 153.065 75.9206 153.065Z" fill="black"/>
<path opacity="0.1" d="M75.9206 155.726C76.3288 155.726 76.6597 155.368 76.6597 154.927C76.6597 154.486 76.3288 154.128 75.9206 154.128C75.5123 154.128 75.1814 154.486 75.1814 154.927C75.1814 155.368 75.5123 155.726 75.9206 155.726Z" fill="black"/>
<path opacity="0.1" d="M79.8399 120.946C79.7319 121.043 79.6007 121.104 79.4617 121.123C79.3226 121.142 79.1815 121.117 79.0547 121.053C78.9279 120.989 78.8207 120.886 78.7455 120.759C78.6703 120.631 78.6303 120.483 78.6301 120.331C78.6291 120.13 78.6996 119.937 78.8269 119.791C78.9226 119.883 79.0157 119.983 79.1087 120.078C79.364 120.36 79.6059 120.647 79.8399 120.946Z" fill="black"/>
<path opacity="0.1" d="M79.3666 123.791C79.7748 123.791 80.1058 123.433 80.1058 122.992C80.1058 122.551 79.7748 122.193 79.3666 122.193C78.9584 122.193 78.6274 122.551 78.6274 122.992C78.6274 123.433 78.9584 123.791 79.3666 123.791Z" fill="black"/>
<path opacity="0.1" d="M79.3666 126.452C79.7748 126.452 80.1058 126.094 80.1058 125.653C80.1058 125.212 79.7748 124.854 79.3666 124.854C78.9584 124.854 78.6274 125.212 78.6274 125.653C78.6274 126.094 78.9584 126.452 79.3666 126.452Z" fill="black"/>
<path opacity="0.1" d="M79.3666 129.113C79.7748 129.113 80.1058 128.755 80.1058 128.314C80.1058 127.873 79.7748 127.515 79.3666 127.515C78.9584 127.515 78.6274 127.873 78.6274 128.314C78.6274 128.755 78.9584 129.113 79.3666 129.113Z" fill="black"/>
<path opacity="0.1" d="M79.3666 131.774C79.7748 131.774 80.1058 131.416 80.1058 130.975C80.1058 130.534 79.7748 130.176 79.3666 130.176C78.9584 130.176 78.6274 130.534 78.6274 130.975C78.6274 131.416 78.9584 131.774 79.3666 131.774Z" fill="black"/>
<path opacity="0.1" d="M79.3666 134.435C79.7748 134.435 80.1058 134.077 80.1058 133.636C80.1058 133.195 79.7748 132.837 79.3666 132.837C78.9584 132.837 78.6274 133.195 78.6274 133.636C78.6274 134.077 78.9584 134.435 79.3666 134.435Z" fill="black"/>
<path opacity="0.1" d="M79.3666 137.096C79.7748 137.096 80.1058 136.738 80.1058 136.297C80.1058 135.856 79.7748 135.498 79.3666 135.498C78.9584 135.498 78.6274 135.856 78.6274 136.297C78.6274 136.738 78.9584 137.096 79.3666 137.096Z" fill="black"/>
<path opacity="0.1" d="M79.3666 139.76C79.7748 139.76 80.1058 139.402 80.1058 138.961C80.1058 138.52 79.7748 138.162 79.3666 138.162C78.9584 138.162 78.6274 138.52 78.6274 138.961C78.6274 139.402 78.9584 139.76 79.3666 139.76Z" fill="black"/>
<path opacity="0.1" d="M79.3666 142.421C79.7748 142.421 80.1058 142.063 80.1058 141.622C80.1058 141.181 79.7748 140.823 79.3666 140.823C78.9584 140.823 78.6274 141.181 78.6274 141.622C78.6274 142.063 78.9584 142.421 79.3666 142.421Z" fill="black"/>
<path opacity="0.1" d="M79.3666 145.082C79.7748 145.082 80.1058 144.724 80.1058 144.283C80.1058 143.842 79.7748 143.484 79.3666 143.484C78.9584 143.484 78.6274 143.842 78.6274 144.283C78.6274 144.724 78.9584 145.082 79.3666 145.082Z" fill="black"/>
<path opacity="0.1" d="M79.3666 147.743C79.7748 147.743 80.1058 147.385 80.1058 146.944C80.1058 146.503 79.7748 146.145 79.3666 146.145C78.9584 146.145 78.6274 146.503 78.6274 146.944C78.6274 147.385 78.9584 147.743 79.3666 147.743Z" fill="black"/>
<path opacity="0.1" d="M79.3666 150.404C79.7748 150.404 80.1058 150.046 80.1058 149.605C80.1058 149.164 79.7748 148.806 79.3666 148.806C78.9584 148.806 78.6274 149.164 78.6274 149.605C78.6274 150.046 78.9584 150.404 79.3666 150.404Z" fill="black"/>
<path opacity="0.1" d="M79.3666 153.065C79.7748 153.065 80.1058 152.707 80.1058 152.266C80.1058 151.825 79.7748 151.467 79.3666 151.467C78.9584 151.467 78.6274 151.825 78.6274 152.266C78.6274 152.707 78.9584 153.065 79.3666 153.065Z" fill="black"/>
<path opacity="0.1" d="M80.0339 154.582C79.7526 154.966 79.4517 155.332 79.1325 155.68C79.0163 155.638 78.9114 155.566 78.8274 155.47C78.7433 155.374 78.6826 155.257 78.6509 155.129C78.6191 155.001 78.6171 154.867 78.6452 154.738C78.6733 154.609 78.7305 154.49 78.8118 154.391C78.893 154.292 78.9958 154.217 79.1107 154.171C79.2257 154.126 79.3493 154.112 79.4705 154.131C79.5916 154.15 79.7065 154.201 79.8049 154.28C79.9032 154.358 79.9819 154.462 80.0339 154.582Z" fill="black"/>
<path d="M70.5443 145.346H69.97C69.177 145.346 68.5342 146.041 68.5342 146.898V179.454C68.5342 180.311 69.177 181.005 69.97 181.005H70.5443C71.3373 181.005 71.9801 180.311 71.9801 179.454V146.898C71.9801 146.041 71.3373 145.346 70.5443 145.346Z" fill="#54576B"/>
<path d="M80.228 176.215H60.2862C59.2656 176.215 58.4382 177.109 58.4382 178.212V179.008C58.4382 180.111 59.2656 181.005 60.2862 181.005H80.228C81.2486 181.005 82.0759 180.111 82.0759 179.008V178.212C82.0759 177.109 81.2486 176.215 80.228 176.215Z" fill="#54576B"/>
<path opacity="0.1" d="M70.5443 145.346H69.97C69.177 145.346 68.5342 146.041 68.5342 146.898V179.454C68.5342 180.311 69.177 181.005 69.97 181.005H70.5443C71.3373 181.005 71.9801 180.311 71.9801 179.454V146.898C71.9801 146.041 71.3373 145.346 70.5443 145.346Z" fill="black"/>
<path opacity="0.1" d="M80.228 176.215H60.2862C59.2656 176.215 58.4382 177.109 58.4382 178.212V179.008C58.4382 180.111 59.2656 181.005 60.2862 181.005H80.228C81.2486 181.005 82.0759 180.111 82.0759 179.008V178.212C82.0759 177.109 81.2486 176.215 80.228 176.215Z" fill="black"/>
<path d="M71.0363 145.346H70.4619C69.669 145.346 69.0261 146.041 69.0261 146.898V179.454C69.0261 180.311 69.669 181.005 70.4619 181.005H71.0363C71.8292 181.005 72.4721 180.311 72.4721 179.454V146.898C72.4721 146.041 71.8292 145.346 71.0363 145.346Z" fill="#54576B"/>
<path d="M80.7199 176.215H60.7781C59.7575 176.215 58.9302 177.109 58.9302 178.212V179.008C58.9302 180.111 59.7575 181.005 60.7781 181.005H80.7199C81.7405 181.005 82.5679 180.111 82.5679 179.008V178.212C82.5679 177.109 81.7405 176.215 80.7199 176.215Z" fill="#54576B"/>
<path d="M91.2756 148.364C89.4276 152.709 86.4651 156.39 82.7396 158.971C79.0141 161.552 74.6819 162.923 70.2569 162.923C65.8318 162.923 61.4996 161.552 57.7741 158.971C54.0486 156.39 51.0862 152.709 49.2382 148.364C46.7893 144.567 44.6489 136.998 44.6489 137.898C44.6489 141.532 45.3113 145.131 46.5982 148.489C47.8851 151.847 49.7714 154.898 52.1493 157.468C54.5272 160.038 57.3502 162.076 60.4571 163.467C63.564 164.858 66.894 165.574 70.2569 165.574C73.6198 165.574 76.9497 164.858 80.0566 163.467C83.1635 162.076 85.9865 160.038 88.3644 157.468C90.7424 154.898 92.6286 151.847 93.9155 148.489C95.2025 145.131 95.8648 141.532 95.8648 137.898C95.8648 136.998 93.7244 144.567 91.2756 148.364Z" fill="#54576B"/>
<path d="M70.2571 110.219C66.1263 110.22 62.0571 111.301 58.397 113.371C54.7369 115.441 51.5946 118.437 49.2385 122.104C47.8341 125.384 47.1082 128.956 47.1113 132.57C47.1113 133.459 47.1548 134.347 47.2416 135.231C47.8205 129.069 50.4949 123.359 54.7468 119.207C58.9987 115.055 64.5252 112.756 70.2558 112.756C75.9864 112.756 81.513 115.055 85.7648 119.207C90.0167 123.359 92.6911 129.069 93.27 135.231C93.3569 134.347 93.4003 133.459 93.4003 132.57C93.4034 128.956 92.6775 125.384 91.2731 122.104C88.9173 118.438 85.7754 115.441 82.1158 113.372C78.4562 111.302 74.3875 110.22 70.2571 110.219Z" fill="#54576B"/>
<path opacity="0.1" d="M70.7489 149.869C71.2923 149.869 71.7327 149.393 71.7327 148.806C71.7327 148.219 71.2923 147.743 70.7489 147.743C70.2056 147.743 69.7651 148.219 69.7651 148.806C69.7651 149.393 70.2056 149.869 70.7489 149.869Z" fill="black"/>
<path opacity="0.2" d="M116.916 175.152C117.12 175.152 117.285 174.973 117.285 174.752C117.285 174.532 117.12 174.353 116.916 174.353C116.712 174.353 116.546 174.532 116.546 174.752C116.546 174.973 116.712 175.152 116.916 175.152Z" fill="black"/>
<path d="M102.972 182.787C101.503 182.797 100.049 182.452 98.7182 181.778C93.7567 179.255 91.3105 179.574 87.6093 180.054C84.1407 180.571 80.6327 180.708 77.1385 180.465C76.1641 180.416 75.2121 180.133 74.3519 179.636C73.4917 179.138 72.7451 178.44 72.1664 177.591C66.6784 169.89 70.3503 149.614 70.5099 148.754C70.5263 148.689 70.5651 148.633 70.6182 148.598C70.6714 148.562 70.735 148.549 70.7964 148.563C70.8577 148.576 70.9122 148.613 70.9488 148.668C70.9854 148.723 71.0015 148.791 70.9938 148.858C70.9566 149.065 67.2048 169.755 72.5572 177.264C73.0933 178.053 73.7856 178.703 74.5838 179.166C75.3819 179.628 76.2657 179.893 77.1704 179.939C80.631 180.179 84.1051 180.041 87.5402 179.528C91.3265 179.034 93.8285 178.706 98.9176 181.296C107.035 185.425 116.549 174.922 116.642 174.815C116.689 174.772 116.749 174.749 116.811 174.75C116.873 174.752 116.931 174.779 116.976 174.826C117.02 174.872 117.047 174.935 117.05 175.002C117.054 175.069 117.035 175.134 116.996 175.186C116.924 175.278 110.12 182.787 102.972 182.787Z" fill="#DFE6F5"/>
<path d="M112.018 41.4696C107.953 33.5527 99.6993 28.1244 90.2149 28.1244C76.7077 28.1244 65.7158 39.1075 65.7158 52.6079H63.9795C63.9795 38.0816 75.7452 26.2623 90.2016 26.2623C98.5719 26.2623 106.038 30.2222 110.843 36.3775C111.236 37.7569 111.537 39.1678 111.835 40.5759C111.901 40.8776 111.962 41.1736 112.018 41.4696Z" fill="#535461"/>
<path d="M67.6436 44.8289H69.9116V61.7835H67.6436C65.9116 61.7835 64.2506 61.0399 63.026 59.7163C61.8013 58.3927 61.1133 56.5976 61.1133 54.7258V51.9038C61.1112 50.9756 61.2786 50.056 61.6058 49.1977C61.933 48.3394 62.4137 47.5594 63.0203 46.9022C63.6269 46.245 64.3475 45.7236 65.1409 45.3678C65.9342 45.012 66.7847 44.8289 67.6436 44.8289Z" fill="#DFE6F5"/>
<path d="M70.2333 44.8433H69.5899C68.7044 44.8433 67.9866 45.6191 67.9866 46.5761V60.0506C67.9866 61.0076 68.7044 61.7834 69.5899 61.7834H70.2333C71.1188 61.7834 71.8367 61.0076 71.8367 60.0506V46.5761C71.8367 45.6191 71.1188 44.8433 70.2333 44.8433Z" fill="#535461"/>
<path d="M214.133 166.646C214.133 166.646 209.911 165.1 207.88 169.12C207.344 170.21 207.071 171.429 207.087 172.663C207.103 173.897 207.406 175.107 207.97 176.181C209.3 178.787 212.054 182.172 217.276 181.87C221.695 181.615 223.166 177.971 223.565 174.58C223.717 173.309 223.566 172.016 223.124 170.826C222.682 169.636 221.965 168.589 221.042 167.784C220.118 166.98 219.019 166.445 217.85 166.231C216.68 166.017 215.479 166.131 214.362 166.562L214.133 166.646Z" fill="#6C63FF"/>
<path opacity="0.1" d="M208.863 176.543C208.3 175.469 207.996 174.259 207.98 173.025C207.964 171.791 208.237 170.572 208.773 169.482C210.804 165.459 215.027 167.008 215.027 167.008L215.242 166.924C216.852 166.295 218.621 166.338 220.204 167.045C219.33 166.483 218.353 166.138 217.341 166.033C216.33 165.929 215.31 166.069 214.354 166.442L214.139 166.525C214.139 166.525 209.916 164.979 207.885 168.999C207.349 170.089 207.076 171.308 207.092 172.542C207.108 173.776 207.412 174.986 207.975 176.06C208.855 177.784 210.347 179.827 212.761 180.945C211.114 179.891 209.765 178.368 208.863 176.543Z" fill="white"/>
<path opacity="0.2" d="M211.953 168.58C211.953 168.58 213.519 169.91 217.319 168.58H211.953Z" fill="black"/>
<path d="M211.618 158.913C211.618 158.913 214.301 166.766 214.077 168.821L216.205 168.58C216.205 168.58 212.612 161.692 213.519 158.913H211.618Z" fill="#6C63FF"/>
<path opacity="0.2" d="M211.618 158.913C211.618 158.913 214.301 166.766 214.077 168.821L216.205 168.58C216.205 168.58 212.612 161.692 213.519 158.913H211.618Z" fill="black"/>
<path d="M222.57 159.568C222.57 159.568 218.348 157.234 216.455 159.163C214.562 161.091 214.274 166.019 214.274 166.019C214.274 166.019 221.164 167.045 222.57 159.568Z" fill="#6C63FF"/>
<path opacity="0.1" d="M222.57 159.568C222.57 159.568 218.348 157.234 216.455 159.163C214.562 161.091 214.274 166.019 214.274 166.019C214.274 166.019 221.164 167.045 222.57 159.568Z" fill="white"/>
<path d="M214.277 166.019C214.277 166.019 215.386 160.298 222.57 159.568" stroke="#6C63FF" stroke-miterlimit="10"/>
</g>
<defs>
<linearGradient id="paint0_linear" x1="158.778" y1="202.848" x2="158.778" y2="18.9575" gradientUnits="userSpaceOnUse">
<stop stop-color="#808080" stop-opacity="0.25"/>
<stop offset="0.54" stop-color="#808080" stop-opacity="0.12"/>
<stop offset="1" stop-color="#808080" stop-opacity="0.1"/>
</linearGradient>
<clipPath id="clip0">
<rect width="303.171" height="222.995" fill="white" transform="translate(0.934082)"/>
</clipPath>
</defs>
</svg>
